<?xml version="1.0" standalone="no"?>
<!DOCTYPE svg PUBLIC "-//W3C//DTD SVG 20010904//EN"
 "http://www.w3.org/TR/2001/REC-SVG-20010904/DTD/svg10.dtd">
<svg version="1.0" xmlns="http://www.w3.org/2000/svg"
 width="192.000000pt" height="192.000000pt" viewBox="0 0 192.000000 192.000000"
 preserveAspectRatio="xMidYMid meet">

<g transform="translate(0.000000,192.000000) scale(0.100000,-0.100000)"
fill="#000000" stroke="none">
<path d="M420 1365 c0 -22 4 -25 33 -25 17 0 42 -3 55 -6 22 -6 22 -7 20 -173
l-3 -166 -50 -5 c-45 -5 -50 -7 -53 -32 -3 -26 -1 -27 50 -30 l53 -3 3 -164
c3 -183 4 -181 -65 -181 -39 0 -43 -2 -43 -25 l0 -25 448 0 448 0 53 26 c140
70 170 243 61 355 l-46 49 47 49 c36 37 49 60 58 100 21 100 -22 194 -117 253
l-37 23 -457 3 -458 3 0 -26z m886 -40 c79 -23 134 -92 134 -169 0 -46 -49
-118 -96 -142 -36 -17 -67 -19 -387 -22 -257 -2 -352 0 -363 9 -19 15 -21 308
-2 327 19 19 648 17 714 -3z m29 -414 c110 -50 138 -174 58 -262 -20 -22 -51
-43 -72 -49 -23 -7 -160 -10 -381 -8 l-345 3 -3 155 c-1 85 0 160 2 167 4 10
78 13 353 13 316 0 352 -2 388 -19z"/>
</g>
</svg>
