<?xml version="1.0" standalone="no"?>
<!DOCTYPE svg PUBLIC "-//W3C//DTD SVG 20010904//EN"
 "http://www.w3.org/TR/2001/REC-SVG-20010904/DTD/svg10.dtd">
<svg version="1.0" xmlns="http://www.w3.org/2000/svg"
 width="840.000000pt" height="859.000000pt" viewBox="0 0 840.000000 859.000000"
 preserveAspectRatio="xMidYMid meet">

<g transform="translate(0.000000,859.000000) scale(0.100000,-0.100000)"
fill="#000000" stroke="none">
<path d="M3852 7164 c-18 -9 -39 -29 -47 -44 -8 -15 -35 -41 -60 -56 -25 -16
-45 -33 -45 -38 0 -4 -12 -20 -26 -35 -40 -41 -90 -114 -98 -144 -3 -14 -24
-41 -46 -58 -22 -18 -40 -36 -40 -41 0 -4 -41 -59 -91 -121 -50 -61 -100 -130
-111 -152 -57 -118 -57 -118 -220 -218 -16 -10 -28 -23 -28 -30 0 -7 -20 -30
-45 -51 -24 -21 -47 -47 -51 -58 -3 -11 -19 -27 -34 -37 -16 -9 -49 -44 -73
-78 -25 -33 -59 -70 -76 -82 -17 -12 -31 -27 -31 -32 0 -5 -14 -29 -31 -52
-45 -62 -159 -240 -159 -249 0 -4 -21 -33 -47 -65 -26 -32 -59 -83 -75 -115
-15 -31 -48 -86 -73 -123 -25 -36 -45 -77 -45 -89 0 -13 -7 -30 -16 -37 -14
-12 -74 -127 -74 -142 0 -3 -11 -23 -25 -43 -14 -20 -31 -58 -39 -83 -8 -25
-26 -66 -40 -91 -14 -25 -26 -53 -26 -62 0 -26 -12 -22 -45 12 -29 30 -68 39
-80 20 -5 -8 -11 -8 -20 0 -18 15 -39 -14 -38 -53 1 -18 3 -105 6 -194 3 -90
3 -163 1 -163 -2 0 -22 33 -45 73 -23 39 -74 126 -113 192 -38 66 -80 147 -91
180 -12 33 -29 71 -37 85 -9 14 -22 44 -29 68 -7 23 -17 42 -23 42 -6 0 -12
16 -14 36 -1 19 -13 52 -27 72 -14 20 -25 44 -25 54 0 21 -39 90 -57 101 -7 4
-13 19 -13 33 0 29 -26 84 -40 84 -6 0 -10 9 -10 19 0 11 -10 39 -23 63 -13
24 -45 84 -71 133 -27 50 -57 99 -67 111 -11 11 -19 27 -19 36 0 9 -6 21 -14
27 -8 6 -23 34 -35 61 -12 28 -33 57 -47 66 -14 10 -37 40 -51 68 -58 114
-157 235 -194 236 -8 0 -19 4 -25 9 -16 16 -57 15 -96 -3 -21 -9 -43 -16 -50
-16 -17 0 -68 -57 -68 -76 0 -8 6 -14 14 -14 9 0 12 -7 9 -20 -4 -15 -9 -18
-18 -10 -17 14 -32 -7 -17 -22 12 -12 5 -60 -15 -98 -16 -32 -17 -87 0 -93 9
-3 9 -7 -1 -20 -10 -12 -11 -21 -2 -37 9 -16 9 -25 1 -33 -15 -15 -14 -150 1
-165 17 -17 28 -234 16 -288 -8 -32 -6 -48 5 -71 9 -16 23 -79 31 -140 9 -61
20 -121 24 -134 5 -13 12 -48 16 -76 6 -44 4 -52 -8 -47 -8 3 -22 17 -31 30
-12 18 -22 23 -36 19 -17 -6 -19 -3 -14 18 6 21 -7 39 -80 117 -47 50 -93 103
-102 117 -9 14 -29 38 -45 53 -15 16 -28 34 -28 42 0 7 -14 21 -31 31 -81 46
-119 -9 -61 -89 15 -21 57 -91 92 -154 98 -176 133 -239 157 -279 12 -20 30
-52 41 -71 53 -97 76 -136 88 -150 7 -8 30 -49 52 -90 22 -41 56 -99 76 -129
20 -29 39 -65 43 -80 3 -14 19 -45 36 -68 37 -53 32 -75 -10 -39 -17 14 -37
26 -45 26 -21 0 -79 46 -92 72 -14 28 -68 35 -117 16 l-33 -14 24 -24 c19 -19
24 -21 29 -8 5 13 15 11 72 -12 36 -14 93 -48 127 -73 33 -26 72 -51 86 -57
14 -5 26 -13 26 -18 0 -5 11 -14 25 -20 14 -6 25 -20 25 -29 0 -10 16 -40 35
-67 42 -59 48 -93 13 -75 -13 6 -40 30 -60 53 -20 22 -37 35 -38 28 0 -17 -19
-5 -28 18 -8 20 -98 100 -114 100 -5 0 -17 9 -27 21 -14 17 -20 19 -44 10 -22
-9 -29 -8 -34 5 -3 8 -3 18 0 21 4 3 -4 18 -17 34 -13 16 -26 33 -28 39 -2 7
-17 6 -46 -4 -42 -15 -43 -15 -54 9 -14 31 -24 31 -39 3 -10 -19 -9 -24 11
-37 12 -9 34 -28 49 -42 14 -14 41 -36 59 -49 18 -12 38 -32 43 -44 5 -11 13
-28 18 -36 8 -14 18 -36 41 -90 19 -44 75 -129 95 -142 28 -20 35 -6 11 23
-14 17 -26 39 -26 49 0 11 -9 24 -20 30 -27 14 -25 30 3 30 19 0 18 2 -10 20
-42 25 -42 40 1 40 23 0 47 -11 77 -35 24 -19 52 -35 62 -35 10 0 17 -8 17
-20 0 -15 8 -22 29 -26 23 -5 33 -15 45 -45 9 -22 20 -39 25 -39 5 0 12 -9 16
-20 3 -10 22 -29 41 -40 18 -12 34 -26 34 -31 0 -5 15 -23 34 -40 19 -16 46
-49 60 -72 13 -23 48 -64 75 -91 28 -27 51 -53 51 -58 0 -5 17 -27 38 -51 54
-59 162 -209 162 -224 0 -9 -6 -10 -24 -3 -57 21 -123 60 -149 86 -38 40 -87
89 -117 117 -55 53 -98 104 -118 142 -11 22 -48 71 -81 108 -34 37 -61 71 -61
75 0 4 -10 12 -22 17 -14 6 -22 17 -20 28 2 9 -2 17 -8 17 -5 0 -10 9 -10 20
0 32 -30 37 -51 9 -26 -34 -24 -47 16 -82 19 -17 35 -36 35 -42 0 -6 16 -27
36 -46 40 -38 98 -119 90 -126 -2 -3 -12 -1 -20 4 -31 17 -192 159 -276 243
-47 47 -104 102 -125 123 -22 21 -68 68 -103 105 -35 37 -102 108 -150 157
-47 50 -91 99 -97 109 -15 28 -31 30 -40 4 -6 -20 -8 -21 -12 -5 -8 32 5 47
39 47 19 0 44 -7 57 -16 12 -9 49 -24 81 -34 50 -15 60 -16 64 -3 8 20 -20 83
-37 83 -8 0 -20 7 -27 15 -13 15 -104 45 -142 45 -12 1 -38 9 -57 19 -32 17
-38 17 -80 3 -55 -18 -71 -29 -71 -51 0 -17 61 -71 79 -71 6 0 11 -9 11 -20 0
-11 7 -23 15 -26 8 -4 15 -13 15 -20 0 -8 11 -20 25 -26 14 -6 25 -18 25 -26
0 -15 50 -72 62 -72 5 0 8 7 8 17 0 14 2 14 20 -2 11 -10 25 -33 32 -51 8 -24
20 -35 40 -39 23 -5 27 -11 23 -28 -4 -17 2 -27 25 -42 17 -11 36 -19 43 -18
12 3 37 -38 51 -79 3 -11 15 -18 31 -18 14 0 36 -10 48 -23 76 -81 86 -95 80
-116 -4 -17 -1 -21 18 -21 16 0 28 -8 34 -22 8 -17 18 -23 44 -23 34 0 54 -24
44 -51 -4 -12 63 -68 95 -78 12 -4 30 -18 38 -32 9 -13 23 -24 31 -24 8 0 24
-11 35 -25 13 -16 28 -25 42 -23 17 2 21 -2 21 -22 0 -18 5 -24 18 -22 9 2 17
-2 17 -8 0 -18 39 -50 61 -50 11 0 31 -13 44 -28 13 -16 67 -62 120 -103 52
-40 97 -81 100 -90 6 -17 105 -92 240 -181 44 -29 84 -62 90 -73 35 -69 44
-75 112 -75 55 0 67 4 88 25 l25 24 0 296 0 296 -25 24 c-22 23 -32 25 -118
25 -127 0 -127 -1 -127 163 0 181 -28 167 324 167 264 0 285 -1 307 -19 l24
-19 5 -477 c6 -556 -7 -505 126 -505 78 0 84 -2 104 -27 13 -17 20 -38 18 -57
-3 -29 -6 -31 -50 -34 l-48 -3 0 -545 0 -544 255 0 255 0 0 70 0 70 -175 0
-175 0 0 180 0 179 128 3 127 3 0 65 0 65 -128 3 -128 3 3 152 3 152 172 3
172 2 3 58 3 57 38 3 37 3 0 280 c0 153 3 279 8 279 4 0 133 -126 287 -280
l280 -280 62 0 63 0 0 -60 0 -59 113 -3 112 -3 3 -472 2 -473 80 0 80 0 0 475
0 475 110 0 110 0 0 70 0 69 -137 3 -138 3 -3 588 -2 587 -245 0 -245 0 0
-280 c0 -169 -4 -280 -9 -280 -6 0 -85 73 -176 162 -120 117 -164 166 -159
177 4 9 14 35 22 59 8 23 23 47 32 52 10 6 21 23 25 39 3 16 13 35 21 42 8 6
14 22 14 35 0 13 8 28 19 33 11 6 26 36 37 72 12 39 27 67 42 77 13 8 37 43
54 76 16 34 38 70 48 81 10 11 23 38 30 60 7 22 21 55 32 74 10 19 17 40 14
47 -3 7 11 39 30 71 23 39 33 65 29 81 -4 17 -1 22 15 22 11 0 20 7 20 15 0 9
7 30 16 48 12 21 13 32 5 35 -16 5 -14 22 3 22 18 0 49 90 40 115 -5 12 -1 22
10 31 10 7 16 19 13 26 -2 7 4 30 15 51 25 51 58 180 58 229 0 21 6 51 13 66
8 15 14 59 15 99 2 58 -4 88 -32 165 -23 62 -39 94 -51 96 -11 3 -15 10 -12
23 4 14 -1 20 -16 24 -96 20 -122 22 -150 14 -18 -5 -48 -9 -67 -9 -30 0 -46
-9 -93 -56 -35 -33 -65 -54 -75 -52 -10 2 -26 -9 -39 -26 -26 -34 -29 -46 -10
-46 13 0 98 55 107 69 3 5 34 23 70 42 54 27 76 33 132 34 60 0 70 -3 97 -29
16 -16 37 -49 46 -74 15 -45 20 -167 9 -209 -6 -21 -8 -21 -27 -8 -29 20 -50
19 -72 -5 -11 -13 -25 -18 -37 -14 -17 5 -58 -18 -103 -58 -93 -83 -124 -108
-137 -108 -9 0 -22 -10 -31 -22 -21 -33 -176 -188 -187 -188 -16 0 -20 18 -10
46 6 16 13 44 15 64 3 19 8 54 11 78 7 42 -4 54 -31 34 -20 -14 -46 -64 -41
-78 3 -8 1 -14 -3 -14 -5 0 -14 -14 -20 -31 -11 -33 -37 -35 -34 -3 12 104
105 312 171 383 34 35 39 47 31 62 -7 14 0 37 31 99 22 44 40 87 40 95 0 9 7
18 15 21 8 4 15 14 15 24 0 9 10 25 21 36 29 25 49 75 49 120 0 33 -2 36 -22
31 -83 -21 -78 -22 -68 9 23 76 133 362 159 412 10 20 21 53 24 74 5 33 27 88
80 198 12 24 21 50 19 57 -2 7 3 26 11 41 28 52 57 119 57 129 0 22 52 170 71
199 10 17 19 39 19 49 0 10 8 27 17 37 16 18 37 85 65 205 15 65 8 74 -59 80
-32 2 -59 -2 -81 -13z m94 -61 c-7 -7 -26 7 -26 19 0 6 6 6 15 -2 9 -7 13 -15
11 -17z m-41 -10 c-4 -10 -9 -36 -12 -58 -3 -22 -12 -48 -20 -57 -9 -9 -18
-39 -20 -65 -3 -26 -10 -53 -15 -59 -15 -20 -88 -197 -88 -215 0 -10 -4 -20
-9 -23 -5 -3 -12 -27 -16 -53 -4 -26 -15 -58 -26 -71 -10 -13 -26 -51 -35 -83
-9 -32 -25 -69 -35 -81 -11 -11 -19 -33 -19 -47 0 -15 -7 -36 -15 -48 -17 -25
-59 -140 -84 -228 -9 -33 -21 -63 -27 -67 -7 -4 -15 -25 -19 -45 -3 -21 -26
-81 -49 -133 -24 -52 -47 -113 -50 -135 -4 -22 -13 -49 -21 -60 -7 -12 -27
-55 -45 -97 -17 -43 -40 -88 -50 -101 -11 -14 -17 -26 -15 -29 3 -3 -16 -27
-41 -54 -25 -27 -58 -68 -74 -92 -15 -23 -40 -52 -54 -63 -14 -11 -26 -25 -26
-31 0 -19 -41 -68 -57 -68 -14 0 -14 2 0 18 10 10 17 27 17 38 0 10 7 28 15
38 8 11 15 29 15 40 0 11 10 31 23 45 24 26 47 90 47 130 0 11 3 21 8 21 13 0
60 84 80 145 11 33 29 76 41 95 11 19 21 43 21 53 0 11 8 30 19 43 10 13 22
44 26 70 4 26 16 55 28 67 12 12 23 36 24 54 1 17 9 45 17 62 9 16 16 38 16
48 0 10 12 40 25 68 20 41 24 59 19 102 -4 29 -2 65 5 83 10 30 8 36 -19 69
-17 20 -35 41 -40 47 -5 7 -14 14 -21 16 -12 4 31 101 50 112 14 9 41 66 41
86 0 11 7 17 17 16 10 0 19 7 21 17 2 11 11 26 20 36 10 9 26 29 37 45 11 15
32 44 48 63 15 20 27 40 27 45 0 6 13 22 29 37 22 21 28 33 24 54 -4 20 -1 27
11 27 9 0 16 7 16 15 0 8 9 19 20 25 11 6 20 17 20 25 0 7 15 23 34 34 19 12
37 28 40 36 7 19 66 55 90 55 13 0 16 -5 11 -17z m-554 -792 c22 -18 24 -26
22 -102 -1 -50 -6 -85 -12 -87 -6 -2 -11 -13 -11 -25 -1 -12 -7 -33 -15 -47
-8 -14 -14 -35 -15 -48 0 -13 -10 -36 -21 -52 -12 -16 -19 -35 -16 -42 3 -8
-4 -25 -14 -39 -10 -13 -19 -29 -19 -35 0 -7 -22 -58 -50 -115 -27 -57 -50
-111 -50 -120 0 -8 -11 -30 -25 -49 -14 -19 -25 -40 -25 -48 0 -8 -13 -38 -29
-66 -16 -28 -32 -72 -35 -98 -7 -47 -8 -48 -42 -48 -33 0 -47 -14 -22 -22 9
-3 8 -16 -1 -52 -14 -56 -109 -251 -118 -242 -4 4 -9 25 -12 48 -7 51 -23 57
-56 24 -21 -21 -24 -29 -15 -46 6 -11 17 -20 25 -20 12 0 15 -14 15 -57 0 -63
-31 -144 -68 -177 -12 -10 -40 -49 -63 -87 -23 -38 -48 -69 -55 -69 -8 0 -14
-5 -14 -11 0 -6 -13 -26 -29 -45 -18 -19 -28 -40 -25 -51 3 -10 -13 -56 -34
-103 -22 -47 -49 -118 -61 -159 -11 -40 -22 -76 -25 -78 -2 -3 -9 4 -15 15 -8
15 -7 30 6 59 9 21 20 59 24 86 4 26 17 61 29 77 12 16 25 51 30 77 15 84 51
177 76 198 26 22 31 41 12 47 -18 6 0 28 23 28 18 0 20 -4 14 -30 -5 -24 -4
-29 8 -24 18 7 38 49 44 94 2 19 9 51 14 70 20 78 2 95 -32 29 -15 -30 -18
-44 -10 -52 17 -17 13 -24 -18 -40 -50 -25 -50 -24 37 152 10 18 27 37 40 42
23 9 29 24 13 33 -5 4 -11 0 -14 -6 -3 -10 -7 -10 -19 0 -13 11 -20 8 -41 -17
-14 -17 -28 -45 -32 -63 -4 -18 -15 -42 -25 -53 -10 -11 -48 -114 -85 -230
-37 -115 -73 -219 -79 -230 -7 -11 -16 -32 -19 -46 -4 -14 -18 -52 -32 -84
-32 -72 -45 -61 -45 37 0 37 -4 70 -10 73 -18 11 -10 82 15 137 14 29 25 60
25 68 0 9 11 32 26 53 14 21 31 54 38 75 8 20 52 116 99 212 47 96 89 189 93
205 4 17 15 41 26 54 10 13 18 27 18 32 0 4 18 34 40 65 22 32 48 82 57 113 9
31 22 62 27 70 25 32 98 162 137 241 23 47 61 115 85 151 24 37 44 70 44 74 0
4 9 18 20 32 11 14 20 33 20 42 0 9 23 50 50 91 27 41 50 82 50 91 0 8 11 26
24 38 14 13 30 37 37 54 21 52 50 61 90 28z m-241 -110 c0 -5 -7 -11 -15 -14
-8 -4 -24 -25 -36 -49 -12 -24 -32 -57 -45 -75 -13 -17 -24 -36 -24 -42 0 -6
-13 -32 -30 -58 -16 -26 -30 -55 -30 -64 0 -10 -9 -21 -20 -24 -11 -3 -20 -12
-20 -18 0 -7 -18 -41 -40 -77 -22 -36 -40 -73 -40 -82 0 -10 -8 -22 -19 -27
-19 -11 -48 -68 -38 -77 3 -3 -10 -28 -29 -55 -19 -27 -34 -54 -34 -60 0 -5
-11 -25 -24 -42 -13 -18 -45 -67 -70 -109 -45 -76 -45 -79 -39 -143 l6 -66
-28 7 c-26 7 -27 6 -20 -26 6 -28 3 -37 -33 -74 -22 -22 -48 -59 -58 -81 -10
-22 -26 -51 -36 -64 -10 -13 -18 -39 -18 -58 0 -32 -7 -45 -60 -110 -14 -16
-13 -36 2 -51 10 -10 8 -14 -10 -18 -17 -5 -22 -14 -22 -39 0 -25 -5 -35 -20
-40 -15 -5 -20 -14 -18 -35 2 -27 -16 -60 -33 -60 -5 0 -9 10 -9 21 0 12 -12
48 -27 81 -24 55 -25 61 -13 101 8 23 26 68 42 99 15 32 28 70 28 86 0 16 9
40 19 54 11 13 32 56 47 94 15 38 38 84 51 102 14 18 50 84 80 145 50 102 102
197 144 258 8 13 32 52 53 87 50 84 232 343 254 362 10 8 28 31 42 50 29 43
172 199 183 199 4 1 7 -3 7 -8z m-2335 -47 c35 -11 58 -26 68 -43 9 -14 38
-51 65 -81 27 -30 64 -80 84 -110 19 -30 45 -64 57 -74 11 -11 21 -23 21 -29
0 -5 11 -22 25 -39 14 -16 25 -40 25 -53 0 -12 6 -25 13 -28 8 -3 31 -38 52
-79 21 -40 49 -89 64 -108 14 -19 26 -42 26 -50 0 -8 43 -99 94 -202 90 -179
110 -240 55 -170 -14 18 -31 32 -38 32 -6 0 -17 14 -23 31 -8 19 -23 34 -42
42 -22 8 -31 18 -31 35 0 21 -43 72 -61 72 -5 0 -18 11 -31 24 -13 13 -32 26
-43 28 -11 2 -18 6 -15 10 6 8 -40 58 -54 58 -6 0 -17 9 -24 20 -7 11 -18 20
-26 20 -8 0 -33 15 -55 34 l-41 35 -103 -3 c-56 -2 -112 -6 -123 -10 -23 -8
-26 6 -37 143 -2 25 -9 47 -15 49 -9 3 -9 9 -1 23 5 11 7 24 3 30 -10 17 -12
167 -2 254 5 44 10 91 11 105 5 54 20 59 102 34z m107 -694 c9 -12 19 -48 23
-85 7 -63 7 -65 -24 -91 -18 -14 -31 -35 -31 -48 0 -34 51 -177 116 -325 46
-104 65 -138 87 -150 19 -11 26 -22 23 -35 -3 -10 8 -42 24 -70 39 -69 80
-180 80 -217 0 -16 8 -44 17 -62 22 -41 63 -139 63 -151 0 -17 -29 16 -32 37
-2 15 -13 25 -34 31 -25 7 -36 20 -53 58 -11 26 -25 48 -31 48 -5 0 -10 7 -10
15 0 8 -13 21 -30 30 -16 9 -30 22 -30 31 0 8 -8 18 -17 21 -20 8 -106 95
-139 140 -24 32 -54 120 -54 156 0 14 -7 44 -15 67 -8 23 -15 62 -15 85 0 23
-5 56 -11 74 -32 92 -62 218 -75 316 l-14 110 27 24 c24 21 33 23 82 17 38 -4
61 -13 73 -26z m277 -202 c24 -28 57 -67 72 -88 15 -21 36 -41 46 -44 10 -4
38 -34 62 -67 24 -33 57 -70 72 -82 16 -11 29 -27 29 -34 0 -25 -27 -12 -68
32 -22 25 -45 45 -50 45 -5 0 -14 10 -21 23 -7 13 -27 32 -44 42 -18 10 -42
29 -54 42 -12 13 -29 23 -38 23 -8 0 -15 6 -15 13 0 8 -11 19 -25 25 -14 6
-25 20 -25 30 0 11 -8 26 -19 36 -12 11 -16 25 -13 42 6 35 36 23 91 -38z
m-95 -198 l7 -25 -20 24 c-25 27 -31 66 -7 41 8 -8 17 -26 20 -40z m2726 -50
c0 -5 -18 -37 -40 -71 -22 -34 -40 -67 -40 -74 0 -6 -25 -44 -55 -85 -30 -40
-64 -93 -76 -117 -11 -23 -25 -45 -30 -49 -5 -3 -9 -13 -9 -23 0 -10 -12 -28
-26 -42 -14 -13 -44 -61 -66 -106 -33 -71 -43 -83 -63 -83 -28 0 -175 -132
-175 -156 0 -20 12 -17 50 11 18 14 36 23 38 20 8 -8 -38 -105 -108 -230 -37
-66 -85 -154 -107 -195 -36 -69 -42 -75 -74 -78 l-34 -2 24 20 c18 15 21 24
13 32 -8 8 -16 7 -28 -3 -16 -13 -17 -12 -10 14 6 26 5 28 -14 22 -18 -6 -19
-3 -14 39 5 35 4 46 -7 46 -8 0 -4 7 9 16 12 8 22 26 22 38 0 13 9 43 20 67
11 24 20 54 20 67 0 13 11 42 24 65 13 23 32 67 41 97 16 51 31 84 94 210 12
25 51 77 87 115 36 39 72 82 80 98 8 15 19 27 24 27 5 0 47 38 92 84 103 105
185 170 263 207 65 31 75 34 75 19z m-808 -72 c-16 -24 -39 -63 -51 -88 -11
-25 -32 -58 -46 -75 l-24 -30 -1 28 c0 15 8 35 18 45 9 9 23 31 30 47 19 43
96 139 100 127 2 -6 -10 -31 -26 -54z m-1707 -9 c39 -34 73 -67 77 -73 4 -6
30 -36 59 -66 56 -59 248 -345 274 -407 9 -21 24 -47 33 -58 34 -38 54 -92 97
-259 24 -92 30 -204 13 -221 -7 -7 -129 159 -189 255 -20 32 -59 86 -86 120
-28 33 -60 82 -73 108 -13 26 -28 54 -35 62 -7 8 -16 36 -19 61 -7 49 -35 107
-71 151 -14 16 -21 35 -18 47 3 11 -6 35 -21 57 -14 21 -26 46 -26 56 0 9 -4
20 -10 23 -5 3 -10 19 -10 36 0 18 -7 33 -20 41 -11 7 -20 21 -20 31 0 10 -9
36 -20 57 -11 22 -17 40 -12 40 4 0 39 -28 77 -61z m2546 -137 c-23 -65 -41
-126 -41 -134 0 -9 -20 -59 -44 -110 -24 -51 -51 -115 -61 -143 -10 -27 -41
-97 -70 -155 -28 -58 -58 -120 -65 -139 -8 -19 -23 -44 -34 -56 -12 -13 -44
-68 -73 -123 -28 -54 -67 -124 -86 -153 -19 -30 -48 -81 -65 -114 -53 -105
-49 -104 -114 -38 l-58 58 30 45 c17 25 30 53 30 63 0 9 9 26 20 37 11 11 20
25 20 31 0 7 16 34 35 60 19 27 35 52 35 56 0 4 27 52 60 107 32 56 69 124 81
151 12 28 28 54 35 58 8 4 14 15 14 23 0 8 15 37 34 64 19 28 37 63 41 79 3
16 13 35 21 42 8 7 33 43 55 81 22 38 64 104 93 146 30 43 66 102 81 132 15
30 35 63 44 74 16 18 16 18 19 -3 2 -11 -15 -74 -37 -139z m-3273 73 c6 -13
24 -31 39 -39 15 -8 45 -36 65 -63 20 -26 57 -68 82 -93 28 -27 46 -53 46 -67
0 -12 14 -59 30 -105 31 -84 38 -128 20 -128 -5 0 -10 9 -10 19 0 11 -7 27
-16 35 -17 18 -72 99 -92 136 -8 14 -28 52 -45 85 -18 33 -42 64 -54 70 -13 5
-23 17 -23 26 0 9 -8 27 -19 40 -10 13 -20 33 -22 43 -3 15 -23 33 -47 42 -1
1 0 8 4 17 8 21 29 12 42 -18z m942 -5 c0 -5 -2 -10 -4 -10 -3 0 -8 5 -11 10
-3 6 -1 10 4 10 6 0 11 -4 11 -10z m1770 -63 c0 -8 -11 -24 -25 -37 -14 -13
-25 -32 -25 -42 0 -23 -71 -144 -85 -143 -15 0 -5 68 13 87 10 9 35 46 57 82
37 61 65 83 65 53z m-230 -16 c-5 -11 -10 -29 -10 -41 0 -12 -11 -38 -25 -58
-14 -20 -34 -66 -45 -100 -11 -35 -28 -76 -39 -90 -10 -15 -40 -81 -66 -147
-26 -66 -51 -124 -55 -130 -5 -5 -17 -32 -28 -60 -57 -143 -78 -184 -117 -230
-23 -27 -46 -60 -49 -72 -4 -13 -14 -23 -23 -23 -26 0 -10 58 57 202 105 226
141 302 156 331 8 16 12 33 9 37 -3 5 13 38 35 75 22 36 60 104 84 153 48 95
100 172 116 172 7 0 7 -6 0 -19z m-176 -66 c-4 -8 -10 -15 -15 -15 -4 0 -6 7
-3 15 4 8 10 15 15 15 4 0 6 -7 3 -15z m-118 -64 c-9 -10 -16 -26 -16 -37 0
-10 -7 -30 -15 -44 -29 -50 -82 -171 -108 -245 -32 -94 -76 -185 -88 -185 -7
0 -8 6 -3 18 4 9 8 31 8 47 1 17 16 67 34 112 17 45 32 89 32 98 0 23 24 67
98 179 36 54 68 94 70 87 2 -7 -3 -20 -12 -30z m-722 -49 c7 -12 -5 -52 -15
-52 -13 0 -22 27 -15 45 6 16 22 20 30 7z m-956 -303 c29 -34 52 -65 52 -70 0
-16 63 -110 109 -163 23 -27 53 -72 65 -100 13 -28 33 -60 46 -71 12 -11 33
-41 46 -66 13 -26 37 -68 55 -94 36 -54 92 -192 83 -207 -3 -5 5 -22 19 -36
44 -48 64 -108 32 -96 -10 4 -15 0 -15 -16 0 -17 4 -20 20 -15 15 5 24 -3 45
-45 14 -28 24 -57 22 -63 -7 -18 -179 161 -207 215 l-24 47 27 25 c30 28 36
52 11 42 -11 -4 -15 -2 -11 8 8 19 -30 66 -52 66 -12 0 -22 13 -30 40 -6 21
-24 54 -39 71 -14 18 -27 40 -27 48 0 9 -9 17 -21 19 -13 2 -26 18 -39 47 -10
25 -24 50 -31 56 -13 10 -185 356 -198 397 -12 38 9 25 62 -39z m1947 -49 c3
-5 1 -10 -4 -10 -6 0 -11 5 -11 10 0 6 2 10 4 10 3 0 8 -4 11 -10z m-767 -16
c87 -36 142 -120 142 -219 0 -76 -25 -130 -79 -176 -72 -63 -161 -75 -246 -35
-185 87 -192 331 -12 421 60 29 137 33 195 9z m-928 -159 c0 -8 -2 -15 -4 -15
-6 0 -56 76 -56 86 1 15 60 -55 60 -71z m313 -72 c139 -204 151 -223 144 -230
-10 -9 -34 14 -80 81 -24 33 -69 96 -100 140 -32 44 -57 89 -57 103 0 36 13
23 93 -94z m-903 -33 c0 -5 -7 -10 -15 -10 -8 0 -15 5 -15 10 0 6 7 10 15 10
8 0 15 -4 15 -10z m831 -107 c26 -37 109 -229 109 -250 -1 -24 -200 318 -200
342 0 14 59 -46 91 -92z m1342 -95 c-14 -21 -30 -38 -34 -38 -12 0 -12 2 7 41
25 51 36 62 45 48 4 -7 -4 -29 -18 -51z m-1816 -40 c-3 -7 -5 -2 -5 12 0 14 2
19 5 13 2 -7 2 -19 0 -25z m1893 12 c0 -5 -4 -10 -10 -10 -5 0 -10 5 -10 10 0
6 5 10 10 10 6 0 10 -4 10 -10z m-1580 -140 c11 -7 12 -12 3 -21 -13 -13 -33
-4 -33 17 0 16 9 18 30 4z m1230 -146 c0 -39 -15 -74 -32 -74 -6 0 -8 9 -3 23
4 12 8 33 10 47 4 39 4 40 15 40 6 0 10 -16 10 -36z m-110 -225 c0 -17 -4 -28
-10 -24 -5 3 -10 17 -10 31 0 13 5 24 10 24 6 0 10 -14 10 -31z m110 -14 c0
-8 -4 -15 -10 -15 -5 0 -10 7 -10 15 0 8 5 15 10 15 6 0 10 -7 10 -15z m-880
-180 c7 -9 10 -18 7 -22 -8 -7 -37 15 -37 28 0 14 16 11 30 -6z m752 -131 c8
-7 -22 -94 -32 -94 -4 0 -13 14 -21 31 -12 29 -11 33 10 50 24 20 34 23 43 13z
m-735 -26 c21 -12 39 -22 39 -22 1 -1 5 -11 8 -23 12 -38 -20 -28 -72 22 -52
49 -40 61 25 23z"/>
<path d="M2740 5100 c0 -37 2 -41 16 -30 17 15 15 61 -3 68 -9 2 -13 -9 -13
-38z"/>
<path d="M2730 5036 c0 -9 5 -16 10 -16 6 0 10 4 10 9 0 6 -4 13 -10 16 -5 3
-10 -1 -10 -9z"/>
<path d="M2620 4620 c0 -5 5 -10 11 -10 5 0 7 5 4 10 -3 6 -8 10 -11 10 -2 0
-4 -4 -4 -10z"/>
<path d="M3170 4145 c0 -8 5 -15 10 -15 6 0 10 7 10 15 0 8 -4 15 -10 15 -5 0
-10 -7 -10 -15z"/>
<path d="M3097 4053 c-12 -11 -8 -23 8 -23 8 0 15 7 15 15 0 16 -12 20 -23 8z"/>
<path d="M3053 3995 c-3 -9 -3 -19 1 -22 7 -7 36 16 36 28 0 15 -30 10 -37 -6z"/>
<path d="M3018 3936 c-10 -7 -18 -18 -18 -25 0 -6 -7 -23 -16 -36 -15 -23 -12
-45 6 -45 8 0 60 100 60 114 0 10 -14 6 -32 -8z"/>
<path d="M1485 3480 c3 -5 8 -10 11 -10 2 0 4 5 4 10 0 6 -5 10 -11 10 -5 0
-7 -4 -4 -10z"/>
<path d="M1504 3446 c-7 -19 3 -36 22 -36 10 0 14 8 12 22 -4 26 -26 36 -34
14z"/>
<path d="M3410 5259 c0 -5 5 -7 10 -4 6 3 10 8 10 11 0 2 -4 4 -10 4 -5 0 -10
-5 -10 -11z"/>
<path d="M4430 3120 l0 -600 81 0 81 0 -41 -47 c-78 -87 -92 -219 -35 -322 37
-69 101 -132 206 -202 149 -101 188 -152 188 -249 0 -98 -54 -146 -156 -138
-83 7 -119 51 -131 158 l-6 60 -73 0 -74 0 0 -66 c0 -91 16 -138 67 -194 61
-68 125 -94 233 -94 75 -1 92 3 145 29 105 53 163 162 153 290 -10 122 -67
201 -221 307 -115 78 -176 134 -193 175 -20 47 -17 112 6 150 34 56 136 68
194 22 37 -29 49 -55 55 -124 l6 -60 73 -3 72 -3 0 61 c0 90 -17 144 -61 194
-22 24 -39 47 -39 50 0 3 56 6 125 6 l125 0 0 -535 0 -535 260 0 260 0 0 70 0
70 -180 0 -180 0 0 180 0 179 128 3 127 3 0 65 0 65 -128 3 -128 3 3 152 3
152 178 3 178 2 -3 68 -3 67 -125 5 -125 5 65 23 c208 72 367 220 421 391 27
86 29 222 5 306 -46 159 -167 287 -348 369 -164 74 -272 86 -805 86 l-383 0 0
-600z m841 259 c54 -17 105 -63 136 -123 23 -44 27 -63 27 -136 0 -96 -13
-136 -65 -195 -57 -64 -92 -75 -261 -75 l-148 0 0 263 c0 145 3 267 7 270 11
12 263 8 304 -4z"/>
<path d="M6200 3120 l0 -599 143 -3 142 -3 -1 -532 0 -533 253 0 253 0 0 70 0
70 -175 0 -175 0 0 465 0 465 45 0 45 0 0 600 0 600 -265 0 -265 0 0 -600z"/>
<path d="M7020 3121 l0 -600 38 -3 37 -3 3 -532 2 -533 255 0 255 0 0 70 0 70
-175 0 -175 0 0 180 0 180 125 0 125 0 0 70 0 70 -125 0 -126 0 3 153 3 152
173 3 172 2 0 60 0 60 70 0 70 0 0 -535 0 -535 80 0 80 0 0 235 0 235 101 0
c97 0 102 -1 128 -28 33 -33 43 -99 40 -258 -4 -158 22 -194 141 -194 l60 0 0
55 c0 30 -4 55 -9 55 -5 0 -17 7 -25 16 -13 12 -16 41 -16 148 0 117 -3 137
-22 176 -13 26 -39 55 -61 69 l-37 24 37 21 c66 37 78 71 78 226 0 159 -11
199 -68 253 l-40 37 81 0 82 0 0 195 0 195 -410 0 -410 0 0 70 0 70 270 0 270
0 0 80 0 80 -270 0 -270 0 0 75 0 75 410 0 410 0 0 180 0 180 -680 0 -680 0 0
-599z m1121 -747 c22 -23 24 -36 27 -128 6 -173 -25 -210 -176 -204 l-77 3 -3
178 -2 177 103 0 c98 0 105 -1 128 -26z"/>
<path d="M3331 2549 c-77 -23 -150 -95 -171 -170 -19 -64 -12 -159 15 -217 32
-68 117 -153 227 -225 48 -32 102 -75 121 -97 105 -123 57 -280 -86 -280 -93
0 -135 45 -146 155 l-6 60 -79 3 -79 3 5 -78 c7 -122 57 -201 156 -250 76 -38
200 -40 277 -5 123 56 185 177 165 325 -15 109 -77 184 -255 305 -114 78 -161
132 -170 196 -14 92 53 163 143 152 82 -11 115 -50 130 -156 l7 -55 70 0 70 0
-1 70 c-2 128 -65 223 -172 259 -50 18 -168 20 -221 5z"/>
<path d="M1788 2534 c-5 -4 -8 -250 -8 -546 l0 -538 204 0 c214 0 247 5 304
47 55 41 74 93 80 218 6 140 -11 208 -63 254 -20 17 -42 31 -50 31 -25 0 -16
14 22 35 62 34 78 79 77 220 -1 162 -22 212 -109 258 -36 20 -59 22 -245 25
-113 2 -208 0 -212 -4z m382 -154 c28 -28 32 -56 28 -164 -3 -89 -5 -98 -31
-123 -26 -26 -34 -28 -127 -31 l-100 -4 0 171 0 171 105 0 c91 0 108 -3 125
-20z m-30 -453 c53 -18 70 -61 70 -174 0 -50 -4 -103 -10 -118 -15 -40 -66
-56 -168 -53 l-87 3 -3 178 -2 177 82 -1 c46 0 99 -5 118 -12z"/>
<path d="M5870 1995 l0 -545 250 0 250 0 0 70 0 70 -175 0 -175 0 0 475 0 475
-75 0 -75 0 0 -545z"/>
</g>
</svg>
