<?xml version="1.0" standalone="no"?>
<!DOCTYPE svg PUBLIC "-//W3C//DTD SVG 20010904//EN"
 "http://www.w3.org/TR/2001/REC-SVG-20010904/DTD/svg10.dtd">
<svg version="1.0" xmlns="http://www.w3.org/2000/svg"
 width="512.000000pt" height="512.000000pt" viewBox="0 0 512.000000 512.000000"
 preserveAspectRatio="xMidYMid meet">

<g transform="translate(0.000000,512.000000) scale(0.100000,-0.100000)"
fill="#000000" stroke="none">
<path d="M2255 4915 c-713 -78 -1370 -437 -1788 -977 -683 -882 -609 -2090
177 -2897 519 -532 1217 -808 1991 -788 375 10 689 78 1024 223 l123 53 455
-171 c494 -184 505 -187 559 -137 56 53 57 49 -77 518 l-122 429 55 74 c261
346 416 736 458 1147 20 205 9 416 -36 639 -65 328 -233 680 -457 957 -90 111
-313 325 -429 413 -393 294 -868 475 -1373 522 -146 13 -411 11 -560 -5z m629
-251 c880 -108 1634 -693 1890 -1469 66 -197 87 -325 93 -550 6 -221 -7 -344
-53 -530 -67 -266 -206 -539 -386 -760 -77 -96 -88 -114 -88 -155 0 -23 154
-588 185 -677 2 -7 -23 -1 -63 14 -349 131 -652 243 -674 248 -20 5 -61 -9
-170 -58 -356 -161 -673 -230 -1058 -229 -519 0 -977 139 -1390 420 -466 317
-773 768 -887 1299 -26 120 -27 144 -27 373 0 229 1 253 27 373 117 548 438
1006 929 1328 483 315 1070 447 1672 373z"/>
<path d="M2560 4205 c-153 -34 -323 -153 -397 -277 -159 -264 6 -584 334 -648
97 -19 262 -8 351 23 262 91 425 320 384 538 -30 161 -140 280 -321 347 -84
31 -253 39 -351 17z m262 -246 c52 -13 128 -68 150 -109 52 -100 -17 -233
-156 -295 -214 -98 -466 -13 -466 156 0 90 62 168 177 222 97 45 188 53 295
26z"/>
<path d="M2391 3129 c-259 -51 -500 -249 -476 -391 6 -32 20 -54 65 -98 50
-50 60 -65 70 -115 17 -81 8 -150 -72 -560 -95 -484 -96 -586 -12 -761 61
-125 184 -229 326 -275 63 -21 92 -24 208 -24 126 0 141 2 223 31 113 41 184
84 268 162 77 71 109 128 109 191 0 53 -23 93 -72 127 -46 32 -67 76 -74 156
-9 91 9 213 75 521 75 348 85 413 77 511 -18 213 -126 380 -301 467 -126 62
-282 84 -414 58z m253 -255 c102 -32 169 -100 200 -204 28 -94 21 -168 -48
-493 -82 -383 -89 -438 -84 -595 5 -142 23 -206 79 -275 17 -21 28 -42 23 -46
-116 -83 -204 -114 -319 -114 -155 0 -248 52 -307 170 -27 55 -33 79 -36 152
-3 74 5 130 61 416 83 423 91 474 85 603 -5 114 -24 180 -72 252 -23 35 -24
39 -8 53 9 9 44 29 77 45 124 60 233 71 349 36z"/>
</g>
</svg>
