<svg xmlns="http://www.w3.org/2000/svg" aria-hidden="true" style="position:absolute;width:0;height:0;overflow:hidden">
  <defs>
   <symbol id="icon-instagram" viewBox="0 0 32 32">
<path d="M20.267 16c0 2.356-1.91 4.267-4.267 4.267s-4.267-1.91-4.267-4.267c0-2.356 1.91-4.267 4.267-4.267s4.267 1.91 4.267 4.267z"></path>
<path d="M21.332 3.2h-10.667c-4.116 0-7.466 3.35-7.466 7.468v10.667c0 4.116 3.35 7.466 7.468 7.466h10.667c4.116 0 7.466-3.35 7.466-7.468v-10.667c0-4.116-3.35-7.466-7.468-7.466zM16 22.4c-3.53 0-6.4-2.87-6.4-6.4s2.87-6.4 6.4-6.4 6.4 2.87 6.4 6.4-2.87 6.4-6.4 6.4zM23.467 9.6c-0.589 0-1.067-0.478-1.067-1.067s0.478-1.067 1.067-1.067v0c0.589 0 1.067 0.478 1.067 1.067s-0.478 1.067-1.067 1.067v0z"></path>
</symbol>

  </defs>
</svg>