<!-- Generated by IcoMoon.io -->
<svg version="1.1" xmlns="http://www.w3.org/2000/svg" width="796" height="1024" viewBox="0 0 796 1024">
<title></title>
<g id="icomoon-ignore">
</g>
<path fill="#fff" d="M730.055 274.964h-142.222v-47.407c0-50.293-19.979-98.526-55.541-134.088s-83.795-55.541-134.088-55.541c-50.293 0-98.526 19.979-134.088 55.541s-55.541 83.795-55.541 134.088v47.407h-142.222c-12.573 0-24.631 4.995-33.522 13.885s-13.885 20.949-13.885 33.522v521.484c0 37.717 14.984 73.893 41.656 100.562 26.672 26.675 62.847 41.66 100.566 41.66h474.072c37.723 0 73.899-14.985 100.568-41.66 26.67-26.67 41.654-62.845 41.654-100.562v-521.484c0-12.574-4.995-24.632-13.881-33.522-8.892-8.891-20.952-13.885-33.525-13.885zM303.389 227.557c0-25.147 9.989-49.263 27.77-67.044s41.898-27.771 67.044-27.771c25.147 0 49.263 9.99 67.044 27.771s27.771 41.898 27.771 67.044v47.407h-189.629v-47.407zM682.65 843.856c0 12.572-4.995 24.627-13.887 33.519s-20.946 13.887-33.525 13.887h-474.072c-12.574 0-24.632-4.995-33.522-13.887s-13.885-20.946-13.885-33.519v-474.077h94.815v47.407c0 12.574 4.995 24.632 13.885 33.522s20.949 13.885 33.522 13.885c12.574 0 24.632-4.995 33.522-13.885s13.885-20.949 13.885-33.522v-47.407h189.629v47.407c0 12.574 4.995 24.632 13.885 33.522s20.949 13.885 33.522 13.885c12.574 0 24.632-4.995 33.521-13.885 8.892-8.891 13.887-20.949 13.887-33.522v-47.407h94.817v474.077z"></path>
</svg>
