<!-- Generated by IcoMoon.io -->
<svg version="1.1" xmlns="http://www.w3.org/2000/svg" width="3986" height="1024" viewBox="0 0 3986 1024">
<title></title>
<g id="icomoon-ignore">
</g>
<path fill="#f6f6f6" d="M0 73.143l448.26 443.56 429.455 434.154v-877.714h-877.714z"></path>
<path fill="#f6f6f6" d="M122.25 189.127l327.575 324.442 308.769 315.037h-636.344v-639.479z"></path>
<path fill="#4f2ee8" d="M760.682 830.672l-327.574-324.44-308.769-315.038h636.343v639.478z"></path>
<path fill="#4f2ee8" d="M253.911 320.783l373.030 373.028h-373.030v-373.028z"></path>
<path fill="#f6f6f6" d="M253.911 320.783l373.030 373.028v-373.028h-373.030z"></path>
<path fill="#000" d="M1525.102 392.521c0-75.703-55.954-118.491-152.722-118.491h-202.094v470.674h213.285c97.426 0 159.963-46.738 159.963-137.582 0-70.437-42.13-106.642-91.502-115.2v-1.317c38.839-13.166 73.070-40.155 73.070-98.085zM1248.622 468.882v-128.365h125.733c46.738 0 72.411 23.040 72.411 64.512s-21.065 63.854-77.019 63.854h-121.125zM1248.622 527.47h137.582c49.371 0 78.994 26.99 78.994 75.045 0 44.105-20.407 75.703-87.552 75.703h-129.024v-150.747z"></path>
<path fill="#000" d="M1744.523 754.578c-105.326 0-169.179-73.070-169.179-177.737s63.854-177.737 169.179-177.737c105.326 0 169.179 73.070 169.179 177.737s-63.854 177.737-169.179 177.737zM1744.523 697.966c65.829 0 100.059-52.005 100.059-121.125 0-69.778-34.231-121.125-100.059-121.125s-100.059 51.346-100.059 121.125c0 69.12 34.231 121.125 100.059 121.125z"></path>
<path fill="#000" d="M2112.878 754.578c-105.326 0-169.179-73.070-169.179-177.737s63.854-177.737 169.179-177.737c105.326 0 169.179 73.070 169.179 177.737s-63.854 177.737-169.179 177.737zM2112.878 697.966c65.829 0 100.059-52.005 100.059-121.125 0-69.778-34.231-121.125-100.059-121.125s-100.059 51.346-100.059 121.125c0 69.12 34.231 121.125 100.059 121.125z"></path>
<path fill="#000" d="M2329.83 274.030v470.674h69.12v-121.783l46.738-44.105 105.984 165.888h82.944l-141.531-211.31 127.707-125.074h-84.919l-136.923 134.949v-269.238h-69.12z"></path>
<path fill="#000" d="M2801.24 541.294c-48.713-11.191-86.235-13.824-86.235-48.055 0-23.698 22.382-39.497 63.854-39.497 53.979 0 67.145 26.99 71.753 53.321h67.145c-4.608-58.587-48.055-107.959-139.557-107.959-84.261 0-132.974 44.105-132.974 99.401 0 76.361 72.411 86.894 125.733 99.401 49.371 11.849 89.527 15.141 89.527 57.271 0 21.065-20.407 44.763-68.462 44.763-71.095 0-86.894-30.939-90.185-67.145h-67.145c3.291 71.095 50.030 121.783 158.647 121.783 81.627 0 136.923-40.155 136.923-104.667 0-80.311-67.145-94.135-129.024-108.617z"></path>
<path fill="#000" d="M3156.257 399.104c-56.613 0-91.502 26.331-109.275 52.663h-1.317v-177.737h-69.12v470.674h69.12v-204.727c0-50.030 36.206-82.286 86.894-82.286 48.055 0 67.145 28.965 67.145 74.386v212.626h69.778v-232.375c0-77.019-49.371-113.225-113.225-113.225z"></path>
<path fill="#000" d="M3481.461 697.966c-61.221 0-97.426-46.738-97.426-103.351h258.048c0-119.808-53.321-195.511-161.938-195.511-101.376 0-165.23 68.462-165.23 177.737 0 105.326 63.854 177.737 168.521 177.737 86.235 0 136.265-48.713 153.381-112.567h-69.12c-5.925 20.407-28.965 55.954-86.235 55.954zM3480.144 453.742c55.954 0 92.818 37.522 92.818 89.527h-188.928c0-52.005 40.155-89.527 96.11-89.527z"></path>
<path fill="#000" d="M3690.789 274.030v470.674h69.778v-470.674h-69.778z"></path>
<path fill="#000" d="M3986.322 330.643v-56.613c-13.824-2.634-28.965-4.608-46.080-4.608-55.296 0-85.577 25.015-85.577 96.11v42.788h-48.055v56.613h48.055v279.771h69.778v-279.771h61.879v-56.613h-61.879v-36.864c0-38.18 17.115-42.788 61.879-40.813z"></path>
</svg>
