<svg xmlns="http://www.w3.org/2000/svg" aria-hidden="true" style="position:absolute;width:0;height:0;overflow:hidden">
  <defs>
   <symbol id="icon-instagram" viewBox="0 0 32 32">
<path d="M20.267 16c0 2.356-1.91 4.267-4.267 4.267s-4.267-1.91-4.267-4.267c0-2.356 1.91-4.267 4.267-4.267s4.267 1.91 4.267 4.267z"></path>
<path d="M21.332 3.2h-10.667c-4.116 0-7.466 3.35-7.466 7.468v10.667c0 4.116 3.35 7.466 7.468 7.466h10.667c4.116 0 7.466-3.35 7.466-7.468v-10.667c0-4.116-3.35-7.466-7.468-7.466zM16 22.4c-3.53 0-6.4-2.87-6.4-6.4s2.87-6.4 6.4-6.4 6.4 2.87 6.4 6.4-2.87 6.4-6.4 6.4zM23.467 9.6c-0.589 0-1.067-0.478-1.067-1.067s0.478-1.067 1.067-1.067v0c0.589 0 1.067 0.478 1.067 1.067s-0.478 1.067-1.067 1.067v0z"></path>
</symbol>

<symbol id="icon-facebook" viewBox="0 0 32 32">
<path d="M16 3.2c-7.069 0-12.8 5.731-12.8 12.8 0 6.417 4.727 11.716 10.886 12.642v-9.25h-3.167v-3.364h3.167v-2.239c0-3.707 1.806-5.333 4.886-5.333 1.475 0 2.256 0.11 2.625 0.159v2.937h-2.101c-1.308 0-1.764 1.241-1.764 2.638v1.839h3.833l-0.519 3.364h-3.313v9.277c6.247-0.847 11.068-6.189 11.068-12.669 0-7.069-5.731-12.8-12.8-12.8z"></path>
</symbol>

<symbol id="icon-twitterx" viewBox="0 0 32 32">
<path d="M25.6 4.267h-19.2c-1.178 0-2.133 0.955-2.133 2.133v0 19.2c0 1.178 0.955 2.133 2.133 2.133v0h19.2c1.178 0 2.133-0.955 2.133-2.133v0-19.2c0-1.178-0.955-2.133-2.133-2.133v0zM18.179 22.4l-3.186-4.554-3.932 4.554h-1.574l4.807-5.553-5.070-7.247h4.919l2.87 4.103 3.553-4.103h1.547l-4.403 5.1 5.388 7.7h-4.919z"></path>
<path d="M11.603 10.863l7.205 10.269h1.907l-7.205-10.269z"></path>
</symbol>


<symbol id="icon-mail" viewBox="0 0 32 32">
<path fill="none" stroke="#000" style="stroke: var(--color1, #000)" stroke-linejoin="round" stroke-linecap="round" stroke-miterlimit="10" stroke-width="1.0667" d="M4.267 25.6h23.467c0.589 0 1.067-0.478 1.067-1.067v0-17.067c0-0.589-0.478-1.067-1.067-1.067v0h-23.467c-0.589 0-1.067 0.478-1.067 1.067v0 17.067c0 0.589 0.478 1.067 1.067 1.067v0z"></path>
<path d="M26.667 6.4h2.133v19.2h-2.133zM3.2 6.4h2.133v19.2h-2.133z"></path>
<path fill="none" stroke="#000" style="stroke: var(--color1, #000)" stroke-linejoin="miter" stroke-linecap="butt" stroke-miterlimit="10" stroke-width="1.6" d="M3.733 6.933l12.267 9.067 12.267-9.067"></path>
</symbol>
  </defs>
</svg>