<svg aria-hidden="true" style="position: absolute; width: 0; height: 0; overflow: hidden;" version="1.1" xmlns="http://www.w3.org/2000/svg" xmlns:xlink="http://www.w3.org/1999/xlink">
<defs>
<symbol id="icon-bi_check2-circle" viewBox="0 0 32 32">
<path fill="#fff" style="fill: var(--color1, #fff)" d="M5 16c-0-1.931 0.508-3.828 1.473-5.501s2.354-3.061 4.026-4.027c1.672-0.966 3.569-1.474 5.5-1.474s3.828 0.508 5.5 1.474c0.23 0.13 0.501 0.165 0.756 0.096s0.472-0.236 0.604-0.465c0.132-0.229 0.168-0.5 0.101-0.756s-0.233-0.474-0.461-0.607c-2.478-1.431-5.359-2.004-8.197-1.63s-5.472 1.673-7.495 3.696-3.323 4.658-3.697 7.495c-0.374 2.837 0.199 5.718 1.63 8.197s3.639 4.415 6.283 5.511c2.644 1.095 5.575 1.288 8.339 0.547s5.207-2.372 6.949-4.642c1.742-2.27 2.687-5.052 2.687-7.913 0-0.265-0.105-0.519-0.293-0.707s-0.442-0.293-0.707-0.293-0.52 0.105-0.707 0.293c-0.188 0.188-0.293 0.442-0.293 0.707 0 2.917-1.159 5.715-3.222 7.778s-4.861 3.222-7.778 3.222-5.715-1.159-7.778-3.222c-2.063-2.063-3.222-4.861-3.222-7.778z"></path>
<path fill="#fff" style="fill: var(--color1, #fff)" d="M30.708 6.708c0.093-0.093 0.167-0.203 0.217-0.325s0.076-0.252 0.076-0.383-0.026-0.262-0.076-0.383c-0.050-0.121-0.124-0.232-0.217-0.325s-0.203-0.167-0.325-0.217-0.252-0.076-0.383-0.076c-0.131 0-0.262 0.026-0.383 0.076s-0.232 0.124-0.325 0.217l-13.292 13.294-5.292-5.294c-0.093-0.093-0.203-0.167-0.325-0.217s-0.252-0.076-0.383-0.076c-0.131 0-0.262 0.026-0.383 0.076s-0.232 0.124-0.325 0.217c-0.093 0.093-0.167 0.203-0.217 0.325s-0.076 0.252-0.076 0.383c0 0.131 0.026 0.262 0.076 0.383s0.124 0.232 0.217 0.325l6 6c0.093 0.093 0.203 0.167 0.325 0.217s0.252 0.076 0.383 0.076c0.132 0 0.262-0.026 0.383-0.076s0.232-0.124 0.325-0.217l14-14z"></path>
</symbol>
<symbol id="icon-bi_x-lg" viewBox="0 0 32 32">
<path fill="#fff" style="fill: var(--color1, #fff)" d="M4.292 5.708c-0.093-0.093-0.167-0.203-0.217-0.325s-0.076-0.252-0.076-0.383c0-0.131 0.026-0.262 0.076-0.383s0.124-0.232 0.217-0.325c0.093-0.093 0.203-0.167 0.325-0.217s0.252-0.076 0.383-0.076c0.131 0 0.262 0.026 0.383 0.076s0.232 0.124 0.325 0.217l10.292 10.294 10.292-10.294c0.093-0.093 0.203-0.167 0.325-0.217s0.252-0.076 0.383-0.076c0.132 0 0.262 0.026 0.383 0.076s0.232 0.124 0.325 0.217c0.093 0.093 0.167 0.203 0.217 0.325s0.076 0.252 0.076 0.383-0.026 0.262-0.076 0.383c-0.050 0.121-0.124 0.232-0.217 0.325l-10.294 10.292 10.294 10.292c0.093 0.093 0.167 0.203 0.217 0.325s0.076 0.252 0.076 0.383c0 0.132-0.026 0.262-0.076 0.383s-0.124 0.232-0.217 0.325-0.203 0.167-0.325 0.217c-0.121 0.050-0.252 0.076-0.383 0.076s-0.262-0.026-0.383-0.076c-0.121-0.050-0.232-0.124-0.325-0.217l-10.292-10.294-10.292 10.294c-0.093 0.093-0.203 0.167-0.325 0.217s-0.252 0.076-0.383 0.076-0.262-0.026-0.383-0.076c-0.121-0.050-0.232-0.124-0.325-0.217s-0.167-0.203-0.217-0.325c-0.050-0.121-0.076-0.252-0.076-0.383s0.026-0.262 0.076-0.383c0.050-0.121 0.124-0.232 0.217-0.325l10.294-10.292-10.294-10.292z"></path>
</symbol>
<symbol id="icon-Icon-close-modal" viewBox="0 0 32 32">
<path stroke-linejoin="round" stroke-linecap="round" stroke-miterlimit="4" stroke-width="5.3333" d="M28.444 3.556l-24.889 24.889M3.556 3.556l24.889 24.889"></path>
</symbol>
<symbol id="icon-info" viewBox="0 0 32 32">
<path d="M14.094 1.281c-4.456 0.488-8.563 2.731-11.175 6.106-4.269 5.513-3.806 13.063 1.106 18.106 3.244 3.325 7.606 5.050 12.444 4.925 2.344-0.063 4.306-0.488 6.4-1.394l0.769-0.331 2.844 1.069c3.087 1.15 3.156 1.169 3.494 0.856 0.35-0.331 0.356-0.306-0.481-3.238l-0.762-2.681 0.344-0.462c1.631-2.163 2.6-4.6 2.863-7.169 0.125-1.281 0.056-2.6-0.225-3.994-0.406-2.050-1.456-4.25-2.856-5.981-0.563-0.694-1.956-2.031-2.681-2.581-2.456-1.837-5.425-2.969-8.581-3.263-0.913-0.081-2.569-0.069-3.5 0.031zM18.025 2.85c5.5 0.675 10.212 4.331 11.813 9.181 0.413 1.231 0.544 2.031 0.581 3.438 0.038 1.381-0.044 2.15-0.331 3.313-0.419 1.663-1.288 3.369-2.413 4.75-0.481 0.6-0.55 0.712-0.55 0.969 0 0.144 0.962 3.675 1.156 4.231 0.012 0.044-0.144 0.006-0.394-0.087-2.181-0.819-4.075-1.519-4.212-1.55-0.125-0.031-0.381 0.056-1.063 0.363-2.225 1.006-4.206 1.438-6.613 1.431-3.244 0-6.106-0.869-8.688-2.625-2.912-1.981-4.831-4.8-5.544-8.119-0.163-0.75-0.169-0.9-0.169-2.331s0.006-1.581 0.169-2.331c0.731-3.425 2.737-6.287 5.806-8.3 3.019-1.969 6.687-2.794 10.45-2.331z"></path>
<path d="M16 5.719c-0.956 0.213-2.019 0.956-2.481 1.731-0.994 1.65 0.037 3.65 2.088 4.050 0.606 0.119 1.638 0.050 2.194-0.144 1.637-0.569 2.656-2 2.4-3.362-0.188-1.006-0.875-1.75-2.006-2.169-0.525-0.194-1.581-0.244-2.194-0.106zM17.637 7.256c0.325 0.081 0.8 0.425 0.938 0.681 0.325 0.625-0.106 1.456-0.975 1.844-1.337 0.613-2.912 0.081-2.912-0.975 0-0.563 0.387-1.050 1.106-1.388 0.606-0.281 1.175-0.331 1.844-0.162zM14.944 12.444c-1.619 0.319-3.125 1.556-2.975 2.444 0.037 0.2 0.125 0.338 0.406 0.613 0.313 0.313 0.375 0.406 0.438 0.719 0.106 0.506 0.050 0.938-0.45 3.5-0.594 3.025-0.6 3.663-0.075 4.756 0.381 0.781 1.15 1.431 2.037 1.719 0.394 0.131 0.575 0.15 1.3 0.15 0.787 0 0.881-0.012 1.394-0.194 0.706-0.256 1.15-0.525 1.675-1.012 0.481-0.444 0.681-0.8 0.681-1.194 0-0.331-0.144-0.581-0.45-0.794-0.288-0.2-0.419-0.475-0.462-0.975-0.056-0.569 0.056-1.331 0.469-3.256 0.469-2.175 0.531-2.581 0.481-3.194-0.113-1.331-0.788-2.375-1.881-2.919-0.788-0.387-1.762-0.525-2.588-0.363zM16.525 14.037c0.637 0.2 1.056 0.625 1.25 1.275 0.175 0.588 0.131 1.050-0.3 3.081-0.512 2.394-0.556 2.738-0.525 3.719 0.031 0.887 0.144 1.288 0.494 1.719 0.106 0.131 0.175 0.262 0.144 0.288-0.725 0.519-1.275 0.712-1.994 0.712-0.969 0-1.55-0.325-1.919-1.063-0.169-0.344-0.206-0.494-0.225-0.95-0.019-0.462 0.031-0.813 0.381-2.6 0.519-2.644 0.569-2.962 0.531-3.769-0.031-0.713-0.15-1.125-0.45-1.575-0.144-0.219-0.15-0.244-0.050-0.331 0.056-0.056 0.275-0.181 0.481-0.281 0.775-0.375 1.456-0.444 2.181-0.225z"></path>
</symbol>


<symbol id="icon-instagram" viewBox="0 0 32 32">
<path d="M20.267 16c0 2.356-1.91 4.267-4.267 4.267s-4.267-1.91-4.267-4.267c0-2.356 1.91-4.267 4.267-4.267s4.267 1.91 4.267 4.267z"></path>
<path d="M21.332 3.2h-10.667c-4.116 0-7.466 3.35-7.466 7.468v10.667c0 4.116 3.35 7.466 7.468 7.466h10.667c4.116 0 7.466-3.35 7.466-7.468v-10.667c0-4.116-3.35-7.466-7.468-7.466zM16 22.4c-3.53 0-6.4-2.87-6.4-6.4s2.87-6.4 6.4-6.4 6.4 2.87 6.4 6.4-2.87 6.4-6.4 6.4zM23.467 9.6c-0.589 0-1.067-0.478-1.067-1.067s0.478-1.067 1.067-1.067v0c0.589 0 1.067 0.478 1.067 1.067s-0.478 1.067-1.067 1.067v0z"></path>
</symbol>

<symbol id="icon-facebook" viewBox="0 0 32 32">
<path d="M16 3.2c-7.069 0-12.8 5.731-12.8 12.8 0 6.417 4.727 11.716 10.886 12.642v-9.25h-3.167v-3.364h3.167v-2.239c0-3.707 1.806-5.333 4.886-5.333 1.475 0 2.256 0.11 2.625 0.159v2.937h-2.101c-1.308 0-1.764 1.241-1.764 2.638v1.839h3.833l-0.519 3.364h-3.313v9.277c6.247-0.847 11.068-6.189 11.068-12.669 0-7.069-5.731-12.8-12.8-12.8z"></path>
</symbol>

<symbol id="icon-twitterx" viewBox="0 0 32 32">
<path d="M25.6 4.267h-19.2c-1.178 0-2.133 0.955-2.133 2.133v0 19.2c0 1.178 0.955 2.133 2.133 2.133v0h19.2c1.178 0 2.133-0.955 2.133-2.133v0-19.2c0-1.178-0.955-2.133-2.133-2.133v0zM18.179 22.4l-3.186-4.554-3.932 4.554h-1.574l4.807-5.553-5.070-7.247h4.919l2.87 4.103 3.553-4.103h1.547l-4.403 5.1 5.388 7.7h-4.919z"></path>
<path d="M11.603 10.863l7.205 10.269h1.907l-7.205-10.269z"></path>
</symbol>

 <symbol id="icon-mail" viewBox="0 0 32 32">
<path d="M16.86 17.173c-0.256 0.188-0.558 0.282-0.86 0.282s-0.604-0.094-0.86-0.282l-15.14-11.102-0 20.596c0 0.803 0.651 1.455 1.455 1.455l29.091-0c0.803 0 1.455-0.651 1.455-1.454v-20.596l-15.14 11.102z"></path>
<path d="M16 14.196l14.069-10.317-28.138-0z"></path>
</symbol>


<symbol id="icon-lock-login" viewBox="0 0 32 32">
<path stroke-linejoin="round" stroke-linecap="round" stroke-miterlimit="4" stroke-width="2.2857" d="M22.667 14.667v-4c0-3.682-2.985-6.667-6.667-6.667s-6.667 2.985-6.667 6.667v4M10.4 28h11.2c2.24 0 3.36 0 4.216-0.436 0.753-0.383 1.365-0.995 1.748-1.748 0.436-0.856 0.436-1.976 0.436-4.216v-0.533c0-2.24 0-3.36-0.436-4.216-0.383-0.753-0.995-1.365-1.748-1.748-0.856-0.436-1.976-0.436-4.216-0.436h-11.2c-2.24 0-3.36 0-4.216 0.436-0.753 0.384-1.365 0.995-1.748 1.748-0.436 0.856-0.436 1.976-0.436 4.216v0.533c0 2.24 0 3.36 0.436 4.216 0.383 0.753 0.995 1.365 1.748 1.748 0.856 0.436 1.976 0.436 4.216 0.436z"></path>
</symbol>
<symbol id="icon-mail-login" viewBox="0 0 32 32">
<path stroke-linejoin="round" stroke-linecap="round" stroke-miterlimit="4" stroke-width="2.2857" d="M28.667 24l-8.857-8M12.191 16l-8.857 8M2.667 9.333l10.886 7.621c0.882 0.617 1.322 0.926 1.802 1.045 0.424 0.106 0.866 0.106 1.29 0 0.479-0.12 0.92-0.428 1.802-1.045l10.887-7.621M9.067 26.667h13.867c2.24 0 3.36 0 4.216-0.436 0.753-0.384 1.365-0.995 1.748-1.748 0.436-0.856 0.436-1.976 0.436-4.216v-8.533c0-2.24 0-3.36-0.436-4.216-0.384-0.753-0.995-1.365-1.748-1.748-0.856-0.436-1.976-0.436-4.216-0.436h-13.867c-2.24 0-3.36 0-4.216 0.436-0.753 0.383-1.365 0.995-1.748 1.748-0.436 0.856-0.436 1.976-0.436 4.216v8.533c0 2.24 0 3.36 0.436 4.216 0.384 0.753 0.995 1.365 1.748 1.748 0.856 0.436 1.976 0.436 4.216 0.436z"></path>
</symbol>
<symbol id="icon-bookshelf" viewBox="0 0 176 32">
<path d="M22.176 8.533c0-4.731-3.497-7.406-9.545-7.406h-12.631v29.417h13.33c6.089 0 9.998-2.921 9.998-8.599 0-4.402-2.633-6.665-5.719-7.2v-0.082c2.427-0.823 4.567-2.51 4.567-6.13zM4.896 13.305v-8.023h7.858c2.921 0 4.526 1.44 4.526 4.032s-1.317 3.991-4.814 3.991h-7.57zM4.896 16.967h8.599c3.086 0 4.937 1.687 4.937 4.69 0 2.757-1.275 4.731-5.472 4.731h-8.064v-9.422z"></path>
<path d="M35.89 31.161c-6.583 0-10.574-4.567-10.574-11.109s3.991-11.109 10.574-11.109c6.583 0 10.574 4.567 10.574 11.109s-3.991 11.109-10.574 11.109zM35.89 27.623c4.114 0 6.254-3.25 6.254-7.57 0-4.361-2.139-7.57-6.254-7.57s-6.254 3.209-6.254 7.57c0 4.32 2.139 7.57 6.254 7.57z"></path>
<path d="M58.912 31.161c-6.583 0-10.574-4.567-10.574-11.109s3.991-11.109 10.574-11.109c6.583 0 10.574 4.567 10.574 11.109s-3.991 11.109-10.574 11.109zM58.912 27.623c4.114 0 6.254-3.25 6.254-7.57 0-4.361-2.139-7.57-6.254-7.57s-6.254 3.209-6.254 7.57c0 4.32 2.139 7.57 6.254 7.57z"></path>
<path d="M72.472 1.127v29.417h4.32v-7.611l2.921-2.757 6.624 10.368h5.184l-8.846-13.207 7.982-7.817h-5.307l-8.558 8.434v-16.827h-4.32z"></path>
<path d="M101.935 17.831c-3.045-0.699-5.39-0.864-5.39-3.003 0-1.481 1.399-2.469 3.991-2.469 3.374 0 4.197 1.687 4.485 3.333h4.197c-0.288-3.662-3.003-6.747-8.722-6.747-5.266 0-8.311 2.757-8.311 6.213 0 4.773 4.526 5.431 7.858 6.213 3.086 0.741 5.595 0.946 5.595 3.579 0 1.317-1.275 2.798-4.279 2.798-4.443 0-5.431-1.934-5.637-4.197h-4.197c0.206 4.443 3.127 7.611 9.915 7.611 5.102 0 8.558-2.51 8.558-6.542 0-5.019-4.197-5.883-8.064-6.789z"></path>
<path d="M124.123 8.944c-3.538 0-5.719 1.646-6.83 3.291h-0.082v-11.109h-4.32v29.417h4.32v-12.795c0-3.127 2.263-5.143 5.431-5.143 3.003 0 4.197 1.81 4.197 4.649v13.289h4.361v-14.523c0-4.814-3.086-7.077-7.077-7.077z"></path>
<path d="M144.448 27.623c-3.826 0-6.089-2.921-6.089-6.459h16.128c0-7.488-3.333-12.219-10.121-12.219-6.336 0-10.327 4.279-10.327 11.109 0 6.583 3.991 11.109 10.533 11.109 5.39 0 8.517-3.045 9.586-7.035h-4.32c-0.37 1.275-1.81 3.497-5.39 3.497zM144.366 12.359c3.497 0 5.801 2.345 5.801 5.595h-11.808c0-3.25 2.51-5.595 6.007-5.595z"></path>
<path d="M157.531 1.127v29.417h4.361v-29.417h-4.361z"></path>
<path d="M176.003 4.665v-3.538c-0.864-0.165-1.81-0.288-2.88-0.288-3.456 0-5.349 1.563-5.349 6.007v2.674h-3.003v3.538h3.003v17.486h4.361v-17.486h3.867v-3.538h-3.867v-2.304c0-2.386 1.070-2.674 3.867-2.551z"></path>
</symbol>
<symbol id="icon-logo" viewBox="0 0 32 32">
<path fill="#f6f6f6" style="fill: var(--color1, #f6f6f6)" d="M0 0l16.343 16.171 15.657 15.829v-32h-32z"></path>
<path fill="#f6f6f6" style="fill: var(--color1, #f6f6f6)" d="M4.457 4.229l11.943 11.829 11.257 11.486h-23.2v-23.314z"></path>
<path fill="#4f2ee8" style="fill: var(--color2, #4f2ee8)" d="M27.733 27.618l-11.943-11.829-11.257-11.486h23.2v23.314z"></path>
<path fill="#4f2ee8" style="fill: var(--color2, #4f2ee8)" d="M9.257 9.029l13.6 13.6h-13.6v-13.6z"></path>
<path fill="#f6f6f6" style="fill: var(--color1, #f6f6f6)" d="M9.257 9.029l13.6 13.6v-13.6h-13.6z"></path>
</symbol>
<symbol id="icon-align-left" viewBox="0 0 32 32">
<path stroke-linejoin="round" stroke-linecap="round" stroke-miterlimit="4" stroke-width="2.2857" d="M22.666 13.334h-18.666M28 8h-24M28 18.666h-24M22.666 24h-18.666"></path>
</symbol>
<symbol id="icon-carret-down" viewBox="0 0 60 32">
<path d="M3.166 3h53.667l-24.123 27.27c-0.719 0.812-1.694 1.269-2.71 1.269s-1.991-0.456-2.71-1.269l-24.123-27.27z"></path>
</symbol>
<symbol id="icon-lock" viewBox="0 0 25 32">
<path d="M22.814 8.593h-4.444v-1.481c0-1.572-0.624-3.079-1.736-4.19s-2.619-1.736-4.19-1.736c-1.572 0-3.079 0.624-4.19 1.736s-1.736 2.619-1.736 4.19v1.481h-4.444c-0.393 0-0.77 0.156-1.048 0.434s-0.434 0.655-0.434 1.048v16.296c0 1.179 0.468 2.309 1.302 3.143s1.964 1.302 3.143 1.302h14.815c1.179 0 2.309-0.468 3.143-1.302s1.302-1.964 1.302-3.143v-16.296c0-0.393-0.156-0.77-0.434-1.048s-0.655-0.434-1.048-0.434zM9.481 7.111c0-0.786 0.312-1.539 0.868-2.095s1.309-0.868 2.095-0.868c0.786 0 1.539 0.312 2.095 0.868s0.868 1.309 0.868 2.095v1.481h-5.926v-1.481zM21.333 26.37c0 0.393-0.156 0.77-0.434 1.047s-0.655 0.434-1.048 0.434h-14.815c-0.393 0-0.77-0.156-1.048-0.434s-0.434-0.655-0.434-1.047v-14.815h2.963v1.481c0 0.393 0.156 0.77 0.434 1.048s0.655 0.434 1.048 0.434c0.393 0 0.77-0.156 1.048-0.434s0.434-0.655 0.434-1.048v-1.481h5.926v1.481c0 0.393 0.156 0.77 0.434 1.048s0.655 0.434 1.048 0.434c0.393 0 0.77-0.156 1.048-0.434s0.434-0.655 0.434-1.048v-1.481h2.963v14.815z"></path>
</symbol>
<symbol id="icon-user" viewBox="0 0 32 32">
<path fill="#4f2ee8" style="fill: var(--color2, #4f2ee8)" d="M5.333 29.333c0-2.829 1.124-5.542 3.124-7.542s4.713-3.124 7.542-3.124c2.829 0 5.542 1.124 7.542 3.124s3.124 4.713 3.124 7.542h-21.333zM16 17.333c-4.42 0-8-3.58-8-8s3.58-8 8-8c4.42 0 8 3.58 8 8s-3.58 8-8 8z"></path>
</symbol>
<symbol id="icon-x-close" viewBox="0 0 32 32">
<path stroke-linejoin="round" stroke-linecap="round" stroke-miterlimit="4" stroke-width="3.4286" d="M24 8l-16 16M8 8l16 16"></path>
</symbol>
<symbol id="icon-arrow-narrow-right" viewBox="0 0 32 32">
<path stroke-linejoin="round" stroke-linecap="round" stroke-miterlimit="4" stroke-width="3.2" d="M5.334 16h21.333M26.667 16l-8-8M26.667 16l-8 8"></path>
</symbol>



<symbol id="icon-arrow-down" viewBox="0 0 32 32">
      <path d="M15.053 17.867a1.334 1.334 0 0 0 1.894 0l6.107-6.12a1.334 1.334 0 1 1 1.894 1.88l-6.12 6.12a4.001 4.001 0 0 1-5.654 0l-6.12-6.12a1.337 1.337 0 0 1 .434-2.172 1.331 1.331 0 0 1 1.46.292l6.107 6.12z"/>
    </symbol>
    <symbol id="icon-arrow-up" viewBox="0 0 32 32">
      <path d="M15.053 14.133a1.334 1.334 0 0 1 1.894 0l6.107 6.12a1.334 1.334 0 1 0 1.894-1.88l-6.12-6.12a4.001 4.001 0 0 0-5.654 0l-6.12 6.12a1.337 1.337 0 0 0 .434 2.172 1.331 1.331 0 0 0 1.46-.292l6.107-6.12z"/>
    </symbol>
    <symbol id="icon-tryzub" viewBox="0 0 20 32">
      <path d="M9.005 30.888a8.64 8.64 0 0 1-3.414-5.351H0V2.42c2.991 1.443 5.153 4.599 5.388 7.876l.846 6.493-.407-.045c-.893 0-1.676.812-1.676 1.608 0 .752.595 1.383 1.378 1.548l1.018.226c1.676-3.051 2.631-6.042 2.631-8.973 0-2.645-.36-5.291-.423-7.996 0-1.202.486-2.3 1.253-3.156.783.857 1.253 1.954 1.253 3.156 0 2.705-.423 5.351-.423 7.996 0 2.931.955 5.922 2.631 8.973l1.018-.226c.783-.165 1.378-.812 1.378-1.548 0-.812-.783-1.608-1.676-1.608l-.423.06.846-6.493c.423-3.277 2.396-6.448 5.388-7.876v23.117h-5.576c-.423 2.179-1.613 4.148-3.414 5.351-.423.286-.783.631-1.018 1.097-.219-.466-.579-.812-.987-1.112zM2.647 17.556c.235-.857.893-1.608 1.738-2.074l-.658-5.351a8.288 8.288 0 0 0-2.036-4.374v11.784h.955v.015zm2.819 6.373c0-.812.125-1.548.298-2.3l-.783-.18c-1.143-.346-2.036-1.203-2.334-2.3h-.955v4.78h3.774zm3.712 0c0-.977-.783-1.834-1.801-1.954-.172.631-.298 1.263-.298 1.954h2.099zm0 1.623H7.314c.298 1.263.955 2.42 1.864 3.397v-3.397zm2.631-5.005c-.72-1.262-1.378-2.585-1.801-3.968-.423 1.383-1.081 2.706-1.801 3.968.72.165 1.316.631 1.801 1.157.486-.526 1.081-.992 1.801-1.157zm1.143 3.382c0-.691-.125-1.323-.297-1.954-1.018.12-1.801.977-1.801 1.954h2.099zm-.235 1.623h-1.864v3.397c.908-.992 1.566-2.134 1.864-3.397zm5.623-1.623v-4.78h-.955c-.298 1.097-1.206 1.954-2.334 2.3l-.783.18c.172.752.298 1.488.298 2.3h3.774zm0-6.373V5.757c-1.081 1.202-1.864 2.706-2.036 4.374l-.658 5.351c.846.466 1.504 1.203 1.739 2.074h.955z"/>
    </symbol>
</defs>
</svg>
