<svg aria-hidden="true" style="position: absolute; width: 0; height: 0; overflow: hidden;" version="1.1" xmlns="http://www.w3.org/2000/svg" xmlns:xlink="http://www.w3.org/1999/xlink">
<defs>
<symbol id="icon-another-shops" viewBox="0 0 30 32">
<path fill="#4f2ee8" style="fill: var(--color1, #4f2ee8)" d="M29.393 10.569c-0.561-0.309-1.226-0.607-1.916-0.852l-0.098-0.030v17.419c-1.421-0.564-3.067-0.894-4.789-0.898h-0.002c-2.601 0-5.175 0.781-7.529 2.287v-17.518c-2.217-1.347-4.777-2.143-7.529-2.143-2.451 0-4.764 0.637-6.805 1.737-0.452 0.232-0.725 0.738-0.725 1.274v17.491c0 0.84 0.644 1.433 1.369 1.433 0.218 0 0.438-0.057 0.657-0.173 1.656-0.913 3.518-1.492 5.503-1.492 2.833 0 5.449 1.188 7.529 2.896 2.080-1.708 4.696-2.896 7.529-2.896 1.986 0 3.847 0.58 5.503 1.506 0.219 0.116 0.439 0.174 0.657 0.174 0.712 0 1.369-0.594 1.369-1.433v-17.506c0-0.536-0.273-1.043-0.725-1.274zM12.32 27.106c-1.421-0.564-3.067-0.894-4.789-0.898h-0.002c-1.628 0-3.231 0.304-4.791 0.898v-14.349c1.405-0.65 3.049-1.030 4.782-1.030 0.003 0 0.006 0 0.010 0h-0c1.642 0 3.272 0.362 4.791 1.043v14.336zM24.643 3.765l-6.845 7.24v13.756l6.845-6.516v-14.48z"></path>
</symbol>
<symbol id="icon-Books-A-Million_logo" viewBox="0 0 86 32">
<path fill="#264f9b" style="fill: var(--color2, #264f9b)" d="M2.297 30.32h0.738c0.419 0 0.678-0.099 0.678-0.525 0-0.384-0.259-0.523-0.678-0.523h-0.738v1.048zM2.297 27.725h0.645c0.419 0 0.679-0.099 0.679-0.524 0-0.385-0.26-0.524-0.679-0.524h-0.645v1.048zM5.691 26.038c0.31 0.426 0.335 1.056 0.21 1.441-0.202 0.598-0.528 0.802-1.097 0.991 0.46 0.156 0.812 0.294 1.131 0.843 0.251 0.443 0.251 1.13 0.007 1.547-0.477 0.852-1.817 0.852-2.245 0.852h-3.654v-6.444h3.528c0.586 0 1.6 0.050 2.12 0.77z"></path>
<path fill="#264f9b" style="fill: var(--color2, #264f9b)" d="M9.974 29.911c0.746 0 1.339-0.623 1.339-1.351s-0.567-1.35-1.348-1.35c-0.797 0-1.368 0.622-1.368 1.35s0.572 1.351 1.377 1.351zM6.302 28.559c0-1.874 1.575-3.396 3.655-3.396 2.093 0 3.653 1.522 3.653 3.396s-1.559 3.398-3.653 3.398c-2.062 0-3.655-1.523-3.655-3.398z"></path>
<path fill="#264f9b" style="fill: var(--color2, #264f9b)" d="M17.598 29.911c0.745 0 1.34-0.623 1.34-1.351s-0.569-1.35-1.349-1.35c-0.797 0-1.367 0.622-1.367 1.35s0.57 1.351 1.377 1.351zM13.926 28.559c0-1.874 1.576-3.396 3.654-3.396 2.095 0 3.655 1.522 3.655 3.396s-1.559 3.398-3.655 3.398c-2.060 0-3.654-1.523-3.654-3.398z"></path>
<path fill="#264f9b" style="fill: var(--color2, #264f9b)" d="M34.925 29.605c0.538 0 0.966-0.448 0.966-0.972 0-0.525-0.411-0.973-0.972-0.973-0.005-0-0.011-0-0.016-0-0.535 0-0.968 0.433-0.968 0.968 0 0.002 0 0.004 0 0.005v-0c0 0.524 0.411 0.972 0.99 0.972z"></path>
<path fill="#264f9b" style="fill: var(--color2, #264f9b)" d="M43.628 29.607c0.537 0 0.965-0.448 0.965-0.972 0-0.525-0.41-0.973-0.972-0.973-0.005-0-0.010-0-0.016-0-0.534 0-0.966 0.433-0.966 0.966 0 0.002 0 0.005 0 0.007v-0c0 0.524 0.41 0.972 0.989 0.972z"></path>
<path fill="#264f9b" style="fill: var(--color2, #264f9b)" d="M23.904 25.269v2.685l1.725-2.685h2.456l-1.961 2.956 2.261 3.488h-2.698l-1.784-2.743v2.743h-2.255v-6.444h2.255z"></path>
<path fill="#264f9b" style="fill: var(--color2, #264f9b)" d="M31.846 27.169c-0.16-0.418-0.302-0.582-0.728-0.631-0.177-0.024-0.545-0.007-0.723 0.213-0.090 0.131-0.099 0.27-0.049 0.385 0.143 0.343 0.695 0.319 1.021 0.343 0.613 0.041 1.527 0.181 1.995 1.008 0.311 0.556 0.311 1.415-0.008 2.030-0.486 0.932-1.442 1.285-2.187 1.367-0.586 0.081-1.902-0.009-2.615-0.795-0.141-0.155-0.267-0.352-0.41-0.72l1.608-0.589c0.26 0.458 0.529 0.654 0.963 0.663 0.22 0 0.496-0.049 0.647-0.269 0.038-0.058 0.061-0.13 0.061-0.207 0-0.072-0.020-0.139-0.054-0.197l0.001 0.002c-0.151-0.286-0.56-0.278-0.93-0.295-0.535-0.033-1.5-0.221-1.944-1.040-0.343-0.622-0.334-1.391 0.009-2.046 0.444-0.852 1.241-1.138 1.936-1.237 0.563-0.081 1.87-0.073 2.54 0.614 0.201 0.229 0.319 0.475 0.411 0.81l-1.542 0.59z"></path>
<path fill="#264f9b" style="fill: var(--color2, #264f9b)" d="M39.213 28.335l-0.576 1.244h1.162l-0.586-1.244zM37.627 31.752h-2.496l3.98-6.609h0.212l3.983 6.609h-2.496l-0.375-0.796h-2.436l-0.372 0.796z"></path>
<path fill="#264f9b" style="fill: var(--color2, #264f9b)" d="M45.303 25.187l3.143 2.546 3.301-2.546h0.169l0.199 6.525h-2.178l-0.127-2.367-1.373 1.082-1.5-1.139-0.091 2.424h-2.012l0.284-6.525h0.186z"></path>
<path fill="#264f9b" style="fill: var(--color2, #264f9b)" d="M55.136 31.712h-2.255v-6.444h2.255v6.444z"></path>
<path fill="#264f9b" style="fill: var(--color2, #264f9b)" d="M58.171 25.269v4.962h1.976v1.482h-4.229v-6.444h2.253z"></path>
<path fill="#264f9b" style="fill: var(--color2, #264f9b)" d="M62.855 25.269v4.962h1.976v1.482h-4.231v-6.444h2.255z"></path>
<path fill="#264f9b" style="fill: var(--color2, #264f9b)" d="M67.612 31.712h-2.254v-6.444h2.254v6.444z"></path>
<path fill="#264f9b" style="fill: var(--color2, #264f9b)" d="M71.853 29.911c0.745 0 1.34-0.623 1.34-1.351s-0.569-1.35-1.35-1.35c-0.007-0-0.015-0-0.023-0-0.742 0-1.343 0.601-1.343 1.343 0 0.003 0 0.005 0 0.008v-0c0 0.729 0.571 1.351 1.376 1.351zM68.181 28.559c0-1.874 1.576-3.396 3.655-3.396 2.093 0 3.653 1.522 3.653 3.396s-1.559 3.398-3.653 3.398c-2.062 0-3.655-1.523-3.655-3.398z"></path>
<path fill="#264f9b" style="fill: var(--color2, #264f9b)" d="M76.282 25.187l4.242 2.602v-2.521h2.253v6.616h-0.158l-4.317-2.612v2.44h-2.255v-6.525h0.234z"></path>
<path fill="#264f9b" style="fill: var(--color2, #264f9b)" d="M85.158 1.12v-0.346h0.229c0.117 0 0.243 0.026 0.243 0.164 0 0.171-0.128 0.182-0.271 0.182h-0.201zM85.158 1.263h0.194l0.293 0.481h0.189l-0.317-0.487c0.164-0.022 0.289-0.108 0.289-0.307 0-0.22-0.13-0.317-0.391-0.317h-0.427v1.112h0.17v-0.481zM85.361 2.15c0.526 0 0.972-0.406 0.972-0.963 0-0.555-0.447-0.96-0.972-0.96-0.531 0-0.981 0.406-0.981 0.96 0 0.557 0.451 0.963 0.981 0.963zM84.574 1.187c0-0.458 0.348-0.801 0.788-0.801 0.438 0 0.781 0.343 0.781 0.801 0 0.463-0.343 0.804-0.781 0.804-0.44 0-0.788-0.342-0.788-0.804z"></path>
<path fill="#264f9b" style="fill: var(--color2, #264f9b)" d="M7.495 17.329h2.432c1.383 0 2.238-0.337 2.238-1.79 0-1.313-0.855-1.788-2.238-1.788h-2.432v3.579zM7.495 8.472h2.125c1.385 0 2.244-0.337 2.244-1.788 0-1.314-0.859-1.789-2.244-1.789h-2.125v3.577zM18.689 2.715c1.023 1.453 1.103 3.604 0.69 4.918-0.664 2.039-1.74 2.738-3.618 3.381 1.519 0.532 2.678 1.006 3.732 2.879 0.828 1.509 0.828 3.853 0.023 5.281-1.573 2.903-5.994 2.903-7.405 2.903h-12.052v-21.986h11.637c1.932 0 5.277 0.168 6.992 2.624z"></path>
<path fill="#264f9b" style="fill: var(--color2, #264f9b)" d="M34.042 10.941l-1.902 4.101h3.836l-1.934-4.101zM28.808 22.209h-8.235l13.132-21.799h0.698l13.136 21.799h-8.232l-1.234-2.625h-8.034l-1.231 2.625z"></path>
<path fill="#264f9b" style="fill: var(--color2, #264f9b)" d="M50.724 0.556l10.367 8.397 10.887-8.397h0.556l0.658 21.52h-7.183l-0.418-7.804-4.53 3.566-4.949-3.753-0.298 7.992h-6.638l0.937-21.52h0.612z"></path>
<path fill="#264f9b" style="fill: var(--color2, #264f9b)" d="M81.094 20.557c0 0 0 0 0 0.001 0 1.266-1.027 2.293-2.293 2.293s-2.293-1.026-2.293-2.293v-0c0-0 0-0 0-0.001 0-1.266 1.027-2.293 2.293-2.293s2.293 1.026 2.293 2.293v0z"></path>
<path fill="#264f9b" style="fill: var(--color2, #264f9b)" d="M74.614 0.043h8.289l-2.819 16.665h-2.82l-2.651-16.665z"></path>
</symbol>
<symbol id="icon-bookshop" viewBox="0 0 32 32">
<path d="M7 9.25c0 0.367 0.067 0.417 0.55 0.417 0.283 0 0.7 0.050 0.917 0.1 0.367 0.1 0.367 0.117 0.333 2.883l-0.050 2.767-0.833 0.083c-0.75 0.083-0.833 0.117-0.883 0.533-0.050 0.433-0.017 0.45 0.833 0.5l0.883 0.050 0.050 2.733c0.050 3.050 0.067 3.017-1.083 3.017-0.65 0-0.717 0.033-0.717 0.417v0.417h14.933l0.883-0.433c2.333-1.167 2.833-4.050 1.017-5.917l-0.767-0.817 0.783-0.817c0.6-0.617 0.817-1 0.967-1.667 0.35-1.667-0.367-3.233-1.95-4.217l-0.617-0.383-15.25-0.1v0.433zM21.767 9.917c1.317 0.383 2.233 1.533 2.233 2.817 0 0.767-0.817 1.967-1.6 2.367-0.6 0.283-1.117 0.317-6.45 0.367-4.283 0.033-5.867 0-6.050-0.15-0.317-0.25-0.35-5.133-0.033-5.45s10.8-0.283 11.9 0.050zM22.25 16.817c1.833 0.833 2.3 2.9 0.967 4.367-0.333 0.367-0.85 0.717-1.2 0.817-0.383 0.117-2.667 0.167-6.35 0.133l-5.75-0.050-0.050-2.583c-0.017-1.417 0-2.667 0.033-2.783 0.067-0.167 1.3-0.217 5.883-0.217 5.267 0 5.867 0.033 6.467 0.317z"></path>
</symbol>
<symbol id="icon-Icon-close-modal" viewBox="0 0 32 32">
<path stroke-linejoin="round" stroke-linecap="round" stroke-miterlimit="4" stroke-width="5.3333" d="M28.444 3.556l-24.889 24.889M3.556 3.556l24.889 24.889"></path>
</symbol>
<symbol id="icon-indiebound" viewBox="0 0 31 32">
<path d="M14.35 5.312c-0.067 0.034-0.145 0.108-0.175 0.164s-0.13 0.153-0.224 0.209c-0.093 0.060-0.168 0.123-0.168 0.142 0 0.015-0.045 0.074-0.097 0.13-0.149 0.153-0.335 0.425-0.365 0.536-0.011 0.052-0.089 0.153-0.171 0.216-0.082 0.067-0.149 0.134-0.149 0.153 0 0.015-0.153 0.22-0.339 0.451-0.186 0.227-0.373 0.484-0.414 0.566-0.212 0.44-0.212 0.44-0.82 0.812-0.060 0.037-0.104 0.086-0.104 0.112s-0.075 0.112-0.168 0.19c-0.089 0.078-0.175 0.175-0.19 0.216-0.011 0.041-0.071 0.101-0.127 0.138-0.060 0.034-0.183 0.164-0.272 0.291-0.093 0.123-0.22 0.261-0.283 0.305s-0.115 0.101-0.115 0.119-0.052 0.108-0.115 0.194c-0.168 0.231-0.592 0.894-0.592 0.928 0 0.015-0.078 0.123-0.175 0.242s-0.22 0.309-0.279 0.428c-0.056 0.115-0.179 0.32-0.272 0.458-0.093 0.134-0.168 0.287-0.168 0.332 0 0.048-0.026 0.112-0.060 0.138-0.052 0.045-0.276 0.473-0.276 0.529 0 0.011-0.041 0.086-0.093 0.16s-0.115 0.216-0.145 0.309c-0.030 0.093-0.097 0.246-0.149 0.339s-0.097 0.197-0.097 0.231c0 0.097-0.045 0.082-0.168-0.045-0.108-0.112-0.253-0.145-0.298-0.075-0.019 0.030-0.041 0.030-0.074 0-0.067-0.056-0.145 0.052-0.142 0.197 0.004 0.067 0.011 0.391 0.022 0.723 0.011 0.335 0.011 0.607 0.004 0.607s-0.082-0.123-0.168-0.272c-0.086-0.145-0.276-0.469-0.421-0.715-0.142-0.246-0.298-0.548-0.339-0.671-0.045-0.123-0.108-0.264-0.138-0.317-0.034-0.052-0.082-0.164-0.108-0.253-0.026-0.086-0.063-0.156-0.086-0.156s-0.045-0.060-0.052-0.134c-0.004-0.071-0.048-0.194-0.101-0.268s-0.093-0.164-0.093-0.201c0-0.078-0.145-0.335-0.212-0.376-0.026-0.015-0.048-0.071-0.048-0.123 0-0.108-0.097-0.313-0.149-0.313-0.022 0-0.037-0.034-0.037-0.071 0-0.041-0.037-0.145-0.086-0.235s-0.168-0.313-0.264-0.495c-0.101-0.186-0.212-0.369-0.25-0.413-0.041-0.041-0.071-0.101-0.071-0.134s-0.022-0.078-0.052-0.101c-0.030-0.022-0.086-0.127-0.13-0.227-0.045-0.104-0.123-0.212-0.175-0.246-0.052-0.037-0.138-0.149-0.19-0.253-0.216-0.425-0.585-0.875-0.723-0.879-0.030 0-0.071-0.015-0.093-0.034-0.060-0.060-0.212-0.056-0.358 0.011-0.078 0.034-0.16 0.060-0.186 0.060-0.063 0-0.253 0.212-0.253 0.283 0 0.030 0.022 0.052 0.052 0.052 0.034 0 0.045 0.026 0.034 0.075-0.015 0.056-0.034 0.067-0.067 0.037-0.063-0.052-0.119 0.026-0.063 0.082 0.045 0.045 0.019 0.224-0.056 0.365-0.060 0.119-0.063 0.324 0 0.346 0.034 0.011 0.034 0.026-0.004 0.075-0.037 0.045-0.041 0.078-0.007 0.138s0.034 0.093 0.004 0.123c-0.056 0.056-0.052 0.559 0.004 0.615 0.063 0.063 0.104 0.872 0.060 1.073-0.030 0.119-0.022 0.179 0.019 0.264 0.034 0.060 0.086 0.294 0.115 0.522 0.034 0.227 0.075 0.451 0.089 0.499 0.019 0.048 0.045 0.179 0.060 0.283 0.022 0.164 0.015 0.194-0.030 0.175-0.030-0.011-0.082-0.063-0.115-0.112-0.045-0.067-0.082-0.086-0.134-0.071-0.063 0.022-0.071 0.011-0.052-0.067 0.022-0.078-0.026-0.145-0.298-0.436-0.175-0.186-0.346-0.384-0.38-0.436s-0.108-0.142-0.168-0.197c-0.056-0.060-0.104-0.127-0.104-0.156 0-0.026-0.052-0.078-0.115-0.115-0.302-0.171-0.443 0.034-0.227 0.332 0.056 0.078 0.212 0.339 0.343 0.574 0.365 0.656 0.495 0.89 0.585 1.039 0.045 0.075 0.112 0.194 0.153 0.264 0.197 0.361 0.283 0.507 0.328 0.559 0.026 0.030 0.112 0.183 0.194 0.335s0.209 0.369 0.283 0.481c0.075 0.108 0.145 0.242 0.16 0.298 0.011 0.052 0.071 0.168 0.134 0.253 0.138 0.197 0.119 0.279-0.037 0.145-0.063-0.052-0.138-0.097-0.168-0.097-0.078 0-0.294-0.171-0.343-0.268-0.052-0.104-0.253-0.13-0.436-0.060l-0.123 0.052 0.089 0.089c0.071 0.071 0.089 0.078 0.108 0.030s0.056-0.041 0.268 0.045c0.134 0.052 0.346 0.179 0.473 0.272 0.123 0.097 0.268 0.19 0.32 0.212 0.052 0.019 0.097 0.048 0.097 0.067s0.041 0.052 0.093 0.075c0.052 0.022 0.093 0.075 0.093 0.108 0 0.037 0.060 0.149 0.13 0.25 0.156 0.22 0.179 0.346 0.048 0.279-0.048-0.022-0.149-0.112-0.224-0.197-0.075-0.082-0.138-0.13-0.142-0.104 0 0.063-0.071 0.019-0.104-0.067-0.030-0.075-0.365-0.373-0.425-0.373-0.019 0-0.063-0.034-0.101-0.078-0.052-0.063-0.075-0.071-0.164-0.037-0.082 0.034-0.108 0.030-0.127-0.019-0.011-0.030-0.011-0.067 0-0.078 0.015-0.011-0.015-0.067-0.063-0.127s-0.097-0.123-0.104-0.145c-0.007-0.026-0.063-0.022-0.171 0.015-0.156 0.056-0.16 0.056-0.201-0.034-0.052-0.115-0.089-0.115-0.145-0.011-0.037 0.071-0.034 0.089 0.041 0.138 0.045 0.034 0.127 0.104 0.183 0.156 0.052 0.052 0.153 0.134 0.22 0.183 0.067 0.045 0.142 0.119 0.16 0.164 0.019 0.041 0.048 0.104 0.067 0.134 0.030 0.052 0.067 0.134 0.153 0.335 0.071 0.164 0.279 0.481 0.354 0.529 0.104 0.075 0.13 0.022 0.041-0.086-0.052-0.063-0.097-0.145-0.097-0.183 0-0.041-0.034-0.089-0.075-0.112-0.101-0.052-0.093-0.112 0.011-0.112 0.071 0 0.067-0.007-0.037-0.075-0.156-0.093-0.156-0.149 0.004-0.149 0.086 0 0.175 0.041 0.287 0.13 0.089 0.071 0.194 0.13 0.231 0.13s0.063 0.030 0.063 0.075c0 0.056 0.030 0.082 0.108 0.097 0.086 0.019 0.123 0.056 0.168 0.168 0.034 0.082 0.075 0.145 0.093 0.145s0.045 0.034 0.060 0.075c0.011 0.037 0.082 0.108 0.153 0.149 0.067 0.045 0.127 0.097 0.127 0.115s0.056 0.086 0.127 0.149c0.071 0.060 0.171 0.183 0.224 0.268 0.048 0.086 0.179 0.238 0.279 0.339 0.104 0.101 0.19 0.197 0.19 0.216s0.063 0.101 0.142 0.19c0.201 0.22 0.604 0.779 0.604 0.834 0 0.034-0.022 0.037-0.089 0.011-0.212-0.078-0.458-0.224-0.555-0.32-0.142-0.149-0.324-0.332-0.436-0.436-0.205-0.197-0.365-0.387-0.44-0.529-0.041-0.082-0.179-0.265-0.302-0.402-0.127-0.138-0.227-0.265-0.227-0.279s-0.037-0.045-0.082-0.063c-0.052-0.022-0.082-0.063-0.075-0.104 0.007-0.034-0.007-0.063-0.030-0.063-0.019 0-0.037-0.034-0.037-0.075 0-0.119-0.112-0.138-0.19-0.034-0.097 0.127-0.089 0.175 0.060 0.305 0.071 0.063 0.13 0.134 0.13 0.156s0.060 0.101 0.134 0.171c0.149 0.142 0.365 0.443 0.335 0.469-0.007 0.011-0.045 0.004-0.075-0.015-0.115-0.063-0.715-0.592-1.028-0.905-0.175-0.175-0.387-0.38-0.466-0.458-0.082-0.078-0.253-0.253-0.384-0.391s-0.38-0.402-0.559-0.585c-0.175-0.186-0.339-0.369-0.361-0.406-0.056-0.104-0.115-0.112-0.149-0.015-0.022 0.075-0.030 0.078-0.045 0.019-0.030-0.119 0.019-0.175 0.145-0.175 0.071 0 0.164 0.026 0.212 0.060 0.045 0.034 0.183 0.089 0.302 0.127 0.186 0.056 0.224 0.060 0.238 0.011 0.030-0.075-0.075-0.309-0.138-0.309-0.030 0-0.075-0.026-0.101-0.056-0.048-0.056-0.387-0.168-0.529-0.168-0.045-0.004-0.142-0.034-0.212-0.071-0.119-0.063-0.142-0.063-0.298-0.011-0.205 0.067-0.265 0.108-0.265 0.19 0 0.063 0.227 0.265 0.294 0.265 0.022 0 0.041 0.034 0.041 0.075s0.026 0.086 0.056 0.097c0.030 0.015 0.056 0.048 0.056 0.075 0 0.030 0.041 0.075 0.093 0.097s0.093 0.067 0.093 0.097c0 0.056 0.186 0.268 0.231 0.268 0.019 0 0.030-0.026 0.030-0.063 0-0.052 0.007-0.052 0.075 0.007 0.041 0.037 0.093 0.123 0.119 0.19 0.030 0.089 0.075 0.13 0.149 0.145 0.086 0.019 0.101 0.041 0.086 0.104s0.007 0.101 0.093 0.156c0.063 0.041 0.134 0.071 0.16 0.067 0.045-0.011 0.138 0.142 0.19 0.294 0.011 0.041 0.056 0.067 0.115 0.067 0.052 0 0.134 0.037 0.179 0.086 0.283 0.302 0.32 0.354 0.298 0.432-0.015 0.063-0.004 0.078 0.067 0.078 0.060 0 0.104 0.030 0.127 0.082 0.030 0.063 0.067 0.086 0.164 0.086 0.127 0 0.201 0.089 0.164 0.19-0.015 0.045 0.235 0.253 0.354 0.291 0.045 0.015 0.112 0.067 0.142 0.119 0.034 0.048 0.086 0.089 0.115 0.089s0.089 0.041 0.13 0.093c0.048 0.060 0.104 0.093 0.156 0.086 0.063-0.007 0.078 0.007 0.078 0.082 0 0.067 0.019 0.089 0.067 0.082 0.034-0.007 0.063 0.007 0.063 0.030 0 0.067 0.145 0.186 0.227 0.186 0.041 0 0.115 0.048 0.164 0.104 0.048 0.060 0.25 0.231 0.447 0.384 0.194 0.149 0.361 0.302 0.373 0.335 0.022 0.063 0.391 0.343 0.894 0.674 0.164 0.108 0.313 0.231 0.335 0.272 0.13 0.257 0.164 0.279 0.417 0.279 0.205 0 0.25-0.015 0.328-0.093l0.093-0.089v-2.205l-0.093-0.089c-0.082-0.086-0.119-0.093-0.44-0.093-0.473 0-0.473 0.004-0.473-0.607 0-0.674-0.104-0.622 1.207-0.622 0.983 0 1.062 0.004 1.144 0.071l0.089 0.071 0.019 1.777c0.022 2.071-0.026 1.881 0.469 1.881 0.291 0 0.313 0.007 0.387 0.101 0.048 0.063 0.075 0.142 0.067 0.212-0.011 0.108-0.022 0.115-0.186 0.127l-0.179 0.011v4.057h1.9v-0.522h-1.304v-1.337l0.95-0.022v-0.484l-0.954-0.022 0.022-1.132 0.641-0.011 0.641-0.007 0.011-0.216 0.011-0.212 0.142-0.011 0.138-0.011v-1.043c0-0.57 0.011-1.039 0.030-1.039 0.015 0 0.495 0.469 1.069 1.043l1.043 1.043h0.466v0.443l0.838 0.022 0.011 1.758 0.007 1.762h0.596v-3.539h0.82v-0.518l-1.024-0.022-0.011-2.19-0.007-2.187h-1.825v1.043c0 0.63-0.015 1.043-0.034 1.043-0.022 0-0.317-0.272-0.656-0.604-0.447-0.436-0.611-0.618-0.592-0.659 0.015-0.034 0.052-0.13 0.082-0.22 0.030-0.086 0.086-0.175 0.119-0.194 0.037-0.022 0.078-0.086 0.093-0.145 0.011-0.060 0.048-0.13 0.078-0.156 0.030-0.022 0.052-0.082 0.052-0.13s0.030-0.104 0.071-0.123c0.041-0.022 0.097-0.134 0.138-0.268 0.045-0.145 0.101-0.25 0.156-0.287 0.048-0.030 0.138-0.16 0.201-0.283 0.060-0.127 0.142-0.261 0.179-0.302s0.086-0.142 0.112-0.224c0.026-0.082 0.078-0.205 0.119-0.276 0.037-0.071 0.063-0.149 0.052-0.175s0.041-0.145 0.112-0.264c0.086-0.145 0.123-0.242 0.108-0.302-0.015-0.063-0.004-0.082 0.056-0.082 0.041 0 0.075-0.026 0.075-0.056 0-0.034 0.026-0.112 0.060-0.179 0.045-0.078 0.048-0.119 0.019-0.13-0.060-0.019-0.052-0.082 0.011-0.082 0.067 0 0.183-0.335 0.149-0.428-0.019-0.045-0.004-0.082 0.037-0.115 0.037-0.026 0.060-0.071 0.048-0.097-0.007-0.026 0.015-0.112 0.056-0.19 0.093-0.19 0.216-0.671 0.216-0.853 0-0.078 0.022-0.19 0.048-0.246 0.030-0.056 0.052-0.22 0.056-0.369 0.007-0.216-0.015-0.328-0.119-0.615-0.086-0.231-0.145-0.35-0.19-0.358-0.041-0.011-0.056-0.037-0.045-0.086 0.015-0.052-0.004-0.075-0.060-0.089-0.358-0.075-0.454-0.082-0.559-0.052-0.067 0.019-0.179 0.034-0.25 0.034-0.112 0-0.171 0.034-0.346 0.209-0.13 0.123-0.242 0.201-0.279 0.194s-0.097 0.034-0.145 0.097c-0.097 0.127-0.108 0.171-0.037 0.171 0.048 0 0.365-0.205 0.399-0.257 0.011-0.019 0.127-0.086 0.261-0.156 0.201-0.101 0.283-0.123 0.492-0.127 0.224 0 0.261 0.011 0.361 0.108 0.060 0.060 0.138 0.183 0.171 0.276 0.056 0.168 0.075 0.622 0.034 0.779-0.022 0.078-0.030 0.078-0.101 0.030-0.108-0.075-0.186-0.071-0.268 0.019-0.041 0.048-0.093 0.067-0.138 0.052-0.063-0.019-0.216 0.067-0.384 0.216-0.346 0.309-0.462 0.402-0.51 0.402-0.034 0-0.082 0.037-0.115 0.082-0.078 0.123-0.656 0.7-0.697 0.7-0.060 0-0.075-0.067-0.037-0.171 0.022-0.060 0.048-0.164 0.056-0.238 0.011-0.071 0.030-0.201 0.041-0.291 0.026-0.156-0.015-0.201-0.115-0.127-0.075 0.052-0.171 0.238-0.153 0.291 0.011 0.030 0.004 0.052-0.011 0.052-0.019 0-0.052 0.052-0.075 0.115-0.041 0.123-0.138 0.13-0.127 0.011 0.045-0.387 0.391-1.162 0.637-1.427 0.127-0.13 0.145-0.175 0.115-0.231-0.026-0.052 0-0.138 0.115-0.369 0.082-0.164 0.149-0.324 0.149-0.354 0-0.034 0.026-0.067 0.056-0.078 0.030-0.015 0.056-0.052 0.056-0.089 0-0.034 0.037-0.093 0.078-0.134 0.108-0.093 0.183-0.279 0.183-0.447 0-0.123-0.007-0.134-0.082-0.115-0.309 0.078-0.291 0.082-0.253-0.034 0.086-0.283 0.495-1.349 0.592-1.535 0.037-0.075 0.078-0.197 0.089-0.276 0.019-0.123 0.101-0.328 0.298-0.738 0.045-0.089 0.078-0.186 0.071-0.212s0.011-0.097 0.041-0.153c0.104-0.194 0.212-0.443 0.212-0.481 0-0.082 0.194-0.633 0.264-0.741 0.037-0.063 0.071-0.145 0.071-0.183s0.030-0.101 0.063-0.138c0.060-0.067 0.138-0.317 0.242-0.764 0.056-0.242 0.030-0.276-0.22-0.298-0.119-0.007-0.22 0.007-0.302 0.048zM14.7 5.539c-0.026 0.026-0.097-0.026-0.097-0.071 0-0.022 0.022-0.022 0.056 0.007 0.034 0.026 0.048 0.056 0.041 0.063zM14.547 5.577c-0.015 0.037-0.034 0.134-0.045 0.216s-0.045 0.179-0.075 0.212c-0.034 0.034-0.067 0.145-0.075 0.242-0.011 0.097-0.037 0.197-0.056 0.22-0.056 0.074-0.328 0.734-0.328 0.801 0 0.037-0.015 0.074-0.034 0.086s-0.045 0.101-0.060 0.197c-0.015 0.097-0.056 0.216-0.097 0.264-0.037 0.048-0.097 0.19-0.13 0.309s-0.093 0.257-0.13 0.302c-0.041 0.041-0.071 0.123-0.071 0.175 0 0.056-0.026 0.134-0.056 0.179-0.063 0.093-0.22 0.522-0.313 0.849-0.034 0.123-0.078 0.235-0.101 0.25-0.026 0.015-0.056 0.093-0.071 0.168-0.011 0.078-0.097 0.302-0.183 0.495-0.089 0.194-0.175 0.421-0.186 0.503-0.015 0.082-0.048 0.183-0.078 0.224-0.026 0.045-0.101 0.205-0.168 0.361-0.063 0.16-0.149 0.328-0.186 0.376-0.041 0.052-0.063 0.097-0.056 0.108 0.011 0.011-0.060 0.101-0.153 0.201s-0.216 0.253-0.276 0.343c-0.056 0.086-0.149 0.194-0.201 0.235s-0.097 0.093-0.097 0.115c0 0.071-0.153 0.253-0.212 0.253-0.052 0-0.052-0.007 0-0.067 0.037-0.037 0.063-0.101 0.063-0.142 0-0.037 0.026-0.104 0.056-0.142 0.030-0.041 0.056-0.108 0.056-0.149s0.037-0.115 0.086-0.168c0.089-0.097 0.175-0.335 0.175-0.484 0-0.041 0.011-0.078 0.030-0.078 0.048 0 0.224-0.313 0.298-0.54 0.041-0.123 0.108-0.283 0.153-0.354 0.041-0.071 0.078-0.16 0.078-0.197 0-0.041 0.030-0.112 0.071-0.16 0.037-0.048 0.082-0.164 0.097-0.261s0.060-0.205 0.104-0.25c0.045-0.045 0.086-0.134 0.089-0.201 0.004-0.063 0.034-0.168 0.063-0.231 0.034-0.060 0.060-0.142 0.060-0.179s0.045-0.149 0.093-0.253c0.075-0.153 0.089-0.22 0.071-0.38-0.015-0.108-0.007-0.242 0.019-0.309 0.037-0.112 0.030-0.134-0.071-0.257-0.063-0.075-0.13-0.153-0.149-0.175-0.019-0.026-0.052-0.052-0.078-0.060-0.045-0.015 0.115-0.376 0.186-0.417 0.052-0.034 0.153-0.246 0.153-0.32 0-0.041 0.026-0.063 0.063-0.060 0.037 0 0.071-0.026 0.078-0.063 0.007-0.041 0.041-0.097 0.075-0.134 0.037-0.034 0.097-0.108 0.138-0.168 0.041-0.056 0.119-0.164 0.179-0.235 0.056-0.074 0.101-0.149 0.101-0.168 0-0.022 0.048-0.082 0.108-0.138 0.082-0.078 0.104-0.123 0.089-0.201-0.015-0.074-0.004-0.101 0.041-0.101 0.034 0 0.060-0.026 0.060-0.056s0.034-0.071 0.075-0.093c0.041-0.022 0.075-0.063 0.075-0.093 0-0.026 0.056-0.086 0.127-0.127 0.071-0.045 0.138-0.104 0.149-0.134 0.026-0.071 0.246-0.205 0.335-0.205 0.048 0 0.060 0.019 0.041 0.063zM12.483 8.527c0.082 0.067 0.089 0.097 0.082 0.38-0.004 0.186-0.022 0.317-0.045 0.324s-0.041 0.048-0.041 0.093c-0.004 0.045-0.026 0.123-0.056 0.175s-0.052 0.13-0.056 0.179c0 0.048-0.037 0.134-0.078 0.194-0.045 0.060-0.071 0.13-0.060 0.156 0.011 0.030-0.015 0.093-0.052 0.145-0.037 0.048-0.071 0.108-0.071 0.13 0 0.026-0.082 0.216-0.186 0.428-0.101 0.212-0.186 0.414-0.186 0.447 0 0.030-0.041 0.112-0.093 0.183s-0.093 0.149-0.093 0.179c0 0.030-0.048 0.142-0.108 0.246s-0.119 0.268-0.13 0.365c-0.026 0.175-0.030 0.179-0.156 0.179-0.123 0-0.175 0.052-0.082 0.082 0.034 0.011 0.030 0.060-0.004 0.194-0.052 0.209-0.406 0.935-0.44 0.902-0.015-0.015-0.034-0.093-0.045-0.179-0.026-0.19-0.086-0.212-0.209-0.089-0.078 0.078-0.089 0.108-0.056 0.171 0.022 0.041 0.063 0.075 0.093 0.075 0.045 0 0.056 0.052 0.056 0.212 0 0.235-0.115 0.536-0.253 0.659-0.045 0.037-0.149 0.183-0.235 0.324s-0.179 0.257-0.205 0.257c-0.030 0-0.052 0.019-0.052 0.041s-0.048 0.097-0.108 0.168c-0.067 0.071-0.104 0.149-0.093 0.19 0.011 0.037-0.048 0.209-0.127 0.384-0.082 0.175-0.183 0.44-0.227 0.592-0.041 0.149-0.082 0.283-0.093 0.291-0.007 0.011-0.034-0.015-0.056-0.056-0.030-0.056-0.026-0.112 0.022-0.22 0.034-0.078 0.075-0.22 0.089-0.32 0.015-0.097 0.063-0.227 0.108-0.287s0.093-0.19 0.112-0.287c0.056-0.313 0.19-0.659 0.283-0.738 0.097-0.082 0.115-0.153 0.045-0.175-0.067-0.022 0-0.104 0.086-0.104 0.067 0 0.075 0.015 0.052 0.112-0.019 0.089-0.015 0.108 0.030 0.089 0.067-0.026 0.142-0.183 0.164-0.35 0.007-0.071 0.034-0.19 0.052-0.261 0.075-0.291 0.007-0.354-0.119-0.108-0.056 0.112-0.067 0.164-0.037 0.194 0.063 0.063 0.048 0.089-0.067 0.149-0.186 0.093-0.186 0.089 0.138-0.566 0.037-0.067 0.101-0.138 0.149-0.156 0.086-0.034 0.108-0.089 0.048-0.123-0.019-0.015-0.041 0-0.052 0.022-0.011 0.037-0.026 0.037-0.071 0-0.048-0.041-0.075-0.030-0.153 0.063-0.052 0.063-0.104 0.168-0.119 0.235s-0.056 0.156-0.093 0.197c-0.037 0.041-0.179 0.425-0.317 0.857-0.138 0.428-0.272 0.816-0.294 0.857-0.026 0.041-0.060 0.119-0.071 0.171-0.015 0.052-0.067 0.194-0.119 0.313-0.119 0.268-0.168 0.227-0.168-0.138 0-0.138-0.015-0.261-0.037-0.272-0.067-0.041-0.037-0.305 0.056-0.51 0.052-0.108 0.093-0.224 0.093-0.253 0-0.034 0.041-0.119 0.097-0.197 0.052-0.078 0.115-0.201 0.142-0.279 0.030-0.075 0.194-0.432 0.369-0.79s0.332-0.704 0.346-0.764c0.015-0.063 0.056-0.153 0.097-0.201 0.037-0.048 0.067-0.101 0.067-0.119 0-0.015 0.067-0.127 0.149-0.242 0.082-0.119 0.179-0.305 0.212-0.421s0.082-0.231 0.101-0.261c0.093-0.119 0.365-0.604 0.51-0.898 0.086-0.175 0.227-0.428 0.317-0.563 0.089-0.138 0.164-0.261 0.164-0.276s0.034-0.067 0.075-0.119c0.041-0.052 0.075-0.123 0.075-0.156s0.086-0.186 0.186-0.339 0.186-0.305 0.186-0.339c0-0.030 0.041-0.097 0.089-0.142 0.052-0.048 0.112-0.138 0.138-0.201 0.078-0.194 0.186-0.227 0.335-0.104zM11.586 8.937c0 0.019-0.026 0.041-0.056 0.052-0.030 0.015-0.089 0.093-0.134 0.183s-0.119 0.212-0.168 0.279c-0.048 0.063-0.089 0.134-0.089 0.156s-0.048 0.119-0.112 0.216c-0.060 0.097-0.112 0.205-0.112 0.238 0 0.037-0.034 0.078-0.075 0.089s-0.075 0.045-0.075 0.067c0 0.026-0.067 0.153-0.149 0.287s-0.149 0.272-0.149 0.305c0 0.037-0.030 0.082-0.071 0.101-0.071 0.041-0.179 0.253-0.142 0.287 0.011 0.011-0.037 0.104-0.108 0.205s-0.127 0.201-0.127 0.224c0 0.019-0.041 0.093-0.089 0.156-0.048 0.067-0.168 0.25-0.261 0.406-0.168 0.283-0.168 0.294-0.145 0.533l0.022 0.246-0.104-0.026c-0.097-0.026-0.101-0.022-0.075 0.097 0.022 0.104 0.011 0.138-0.123 0.276-0.082 0.082-0.179 0.22-0.216 0.302s-0.097 0.19-0.134 0.238c-0.037 0.048-0.067 0.145-0.067 0.216 0 0.119-0.026 0.168-0.224 0.41-0.052 0.060-0.048 0.134 0.007 0.19 0.037 0.037 0.030 0.052-0.037 0.067-0.063 0.019-0.082 0.052-0.082 0.145s-0.019 0.13-0.075 0.149-0.075 0.052-0.067 0.13c0.007 0.101-0.060 0.224-0.123 0.224-0.019 0-0.034-0.037-0.034-0.078 0-0.045-0.045-0.179-0.101-0.302-0.089-0.205-0.093-0.227-0.048-0.376 0.030-0.086 0.097-0.253 0.156-0.369 0.056-0.119 0.104-0.261 0.104-0.32s0.034-0.149 0.071-0.201c0.041-0.048 0.119-0.209 0.175-0.35s0.142-0.313 0.19-0.38c0.052-0.067 0.186-0.313 0.298-0.54 0.186-0.38 0.38-0.734 0.536-0.961 0.030-0.048 0.119-0.194 0.197-0.324 0.186-0.313 0.864-1.278 0.946-1.349 0.037-0.030 0.104-0.115 0.156-0.186 0.108-0.16 0.641-0.741 0.682-0.741 0.015-0.004 0.026 0.011 0.026 0.030zM2.887 9.112c0.13 0.041 0.216 0.097 0.253 0.16 0.034 0.052 0.142 0.19 0.242 0.302s0.238 0.298 0.313 0.41c0.071 0.112 0.168 0.238 0.212 0.276 0.041 0.041 0.078 0.086 0.078 0.108 0 0.019 0.041 0.082 0.093 0.145 0.052 0.060 0.093 0.149 0.093 0.197 0 0.045 0.022 0.093 0.048 0.104 0.030 0.011 0.115 0.142 0.194 0.294 0.078 0.149 0.183 0.332 0.238 0.402 0.052 0.071 0.097 0.156 0.097 0.186s0.16 0.369 0.35 0.752c0.335 0.667 0.41 0.894 0.205 0.633-0.052-0.067-0.115-0.119-0.142-0.119-0.022 0-0.063-0.052-0.086-0.115-0.030-0.071-0.086-0.127-0.156-0.156-0.082-0.030-0.115-0.067-0.115-0.13 0-0.078-0.16-0.268-0.227-0.268-0.019 0-0.067-0.041-0.115-0.089s-0.119-0.097-0.16-0.104c-0.041-0.007-0.067-0.022-0.056-0.037 0.022-0.030-0.149-0.216-0.201-0.216-0.022 0-0.063-0.034-0.089-0.075s-0.067-0.075-0.097-0.075-0.123-0.056-0.205-0.127l-0.153-0.13-0.384 0.011c-0.209 0.007-0.417 0.022-0.458 0.037-0.086 0.030-0.097-0.022-0.138-0.533-0.007-0.093-0.034-0.175-0.056-0.183-0.034-0.011-0.034-0.034-0.004-0.086 0.019-0.041 0.026-0.089 0.011-0.112-0.037-0.063-0.045-0.622-0.007-0.946 0.019-0.164 0.037-0.339 0.041-0.391 0.019-0.201 0.075-0.22 0.38-0.127zM3.286 11.697c0.034 0.045 0.071 0.179 0.086 0.317 0.026 0.235 0.026 0.242-0.089 0.339-0.067 0.052-0.115 0.13-0.115 0.179 0 0.127 0.19 0.659 0.432 1.211 0.171 0.387 0.242 0.514 0.324 0.559 0.071 0.041 0.097 0.082 0.086 0.13-0.011 0.037 0.030 0.156 0.089 0.261 0.145 0.257 0.298 0.671 0.298 0.808 0 0.060 0.030 0.164 0.063 0.231 0.082 0.153 0.235 0.518 0.235 0.563 0 0.063-0.108-0.060-0.119-0.138-0.007-0.056-0.048-0.093-0.127-0.115-0.093-0.026-0.134-0.075-0.197-0.216-0.041-0.097-0.093-0.179-0.115-0.179-0.019 0-0.037-0.026-0.037-0.056s-0.048-0.078-0.112-0.112c-0.060-0.034-0.112-0.082-0.112-0.115 0-0.030-0.030-0.067-0.063-0.078-0.075-0.030-0.395-0.354-0.518-0.522-0.089-0.119-0.201-0.447-0.201-0.581 0-0.052-0.026-0.164-0.056-0.25s-0.056-0.231-0.056-0.317-0.019-0.209-0.041-0.276c-0.119-0.343-0.231-0.812-0.279-1.177l-0.052-0.41 0.101-0.089c0.089-0.078 0.123-0.086 0.305-0.063 0.142 0.015 0.227 0.048 0.272 0.097zM4.318 12.45c0.089 0.104 0.212 0.25 0.268 0.328s0.134 0.153 0.171 0.164c0.037 0.015 0.142 0.127 0.231 0.25s0.212 0.261 0.268 0.305c0.060 0.041 0.108 0.101 0.108 0.127 0 0.093-0.101 0.045-0.253-0.119-0.082-0.093-0.168-0.168-0.186-0.168s-0.052-0.037-0.078-0.086c-0.026-0.048-0.101-0.119-0.164-0.156-0.067-0.037-0.156-0.108-0.201-0.156s-0.108-0.086-0.142-0.086c-0.030 0-0.056-0.022-0.056-0.048 0-0.030-0.041-0.071-0.093-0.093s-0.093-0.075-0.093-0.112c0-0.041-0.030-0.097-0.071-0.134-0.045-0.041-0.060-0.093-0.048-0.156 0.022-0.13 0.134-0.086 0.339 0.142zM3.964 13.187l0.026 0.093-0.075-0.089c-0.093-0.101-0.115-0.246-0.026-0.153 0.030 0.030 0.063 0.097 0.075 0.149zM14.119 13.374c0 0.019-0.067 0.138-0.149 0.264s-0.149 0.25-0.149 0.276c0 0.022-0.093 0.164-0.205 0.317-0.112 0.149-0.238 0.346-0.283 0.436-0.041 0.086-0.093 0.168-0.112 0.183-0.019 0.011-0.034 0.048-0.034 0.086s-0.045 0.104-0.097 0.156c-0.052 0.048-0.164 0.227-0.246 0.395-0.123 0.264-0.16 0.309-0.235 0.309-0.104 0-0.652 0.492-0.652 0.581 0 0.075 0.045 0.063 0.186-0.041 0.067-0.052 0.134-0.086 0.142-0.075 0.030 0.030-0.142 0.391-0.402 0.857-0.138 0.246-0.317 0.574-0.399 0.726-0.134 0.257-0.156 0.279-0.276 0.291l-0.127 0.007 0.089-0.075c0.067-0.056 0.078-0.089 0.048-0.119s-0.060-0.026-0.104 0.011c-0.060 0.048-0.063 0.045-0.037-0.052 0.022-0.097 0.019-0.104-0.052-0.082-0.067 0.022-0.071 0.011-0.052-0.145 0.019-0.13 0.015-0.171-0.026-0.171-0.030 0-0.015-0.026 0.034-0.060 0.045-0.030 0.082-0.097 0.082-0.142 0-0.048 0.034-0.16 0.075-0.25s0.075-0.201 0.075-0.25c0-0.048 0.041-0.156 0.089-0.242s0.119-0.25 0.153-0.361c0.060-0.19 0.115-0.313 0.35-0.782 0.045-0.093 0.19-0.287 0.324-0.428 0.134-0.145 0.268-0.305 0.298-0.365 0.030-0.056 0.071-0.101 0.089-0.101s0.175-0.142 0.343-0.313c0.384-0.391 0.689-0.633 0.98-0.771 0.242-0.115 0.279-0.127 0.279-0.071zM11.109 13.642c-0.060 0.089-0.145 0.235-0.19 0.328-0.041 0.093-0.119 0.216-0.171 0.279l-0.089 0.112-0.004-0.104c0-0.056 0.030-0.13 0.067-0.168 0.034-0.034 0.086-0.115 0.112-0.175 0.071-0.16 0.358-0.518 0.373-0.473 0.007 0.022-0.037 0.115-0.097 0.201zM4.75 13.675c0.145 0.127 0.272 0.25 0.287 0.272s0.112 0.134 0.22 0.246c0.209 0.22 0.924 1.285 1.021 1.516 0.034 0.078 0.089 0.175 0.123 0.216 0.127 0.142 0.201 0.343 0.361 0.965 0.089 0.343 0.112 0.76 0.048 0.823-0.026 0.026-0.481-0.592-0.704-0.95-0.074-0.119-0.22-0.32-0.32-0.447-0.104-0.123-0.224-0.305-0.272-0.402s-0.104-0.201-0.13-0.231c-0.026-0.030-0.060-0.134-0.071-0.227-0.026-0.183-0.13-0.399-0.264-0.563-0.052-0.060-0.078-0.13-0.067-0.175 0.011-0.041-0.022-0.13-0.078-0.212-0.052-0.078-0.097-0.171-0.097-0.209 0-0.034-0.015-0.075-0.037-0.086-0.019-0.011-0.037-0.071-0.037-0.134 0-0.067-0.026-0.123-0.074-0.153-0.041-0.026-0.074-0.078-0.074-0.115s-0.034-0.134-0.074-0.212c-0.041-0.082-0.063-0.149-0.045-0.149 0.015 0 0.145 0.104 0.287 0.227zM14.234 14.186c-0.086 0.242-0.153 0.469-0.153 0.499 0 0.034-0.075 0.22-0.164 0.41s-0.19 0.428-0.227 0.533c-0.037 0.101-0.153 0.361-0.261 0.577-0.104 0.216-0.216 0.447-0.242 0.518-0.030 0.071-0.086 0.164-0.127 0.209-0.045 0.048-0.164 0.253-0.272 0.458-0.104 0.201-0.25 0.462-0.32 0.57-0.071 0.112-0.179 0.302-0.242 0.425-0.197 0.391-0.183 0.387-0.425 0.142l-0.216-0.216 0.112-0.168c0.063-0.093 0.112-0.197 0.112-0.235 0-0.034 0.034-0.097 0.075-0.138s0.075-0.093 0.075-0.115c0-0.026 0.060-0.127 0.13-0.224 0.071-0.101 0.13-0.194 0.13-0.209s0.101-0.194 0.224-0.399c0.119-0.209 0.257-0.462 0.302-0.563 0.045-0.104 0.104-0.201 0.13-0.216 0.030-0.015 0.052-0.056 0.052-0.086s0.056-0.138 0.127-0.238c0.071-0.104 0.138-0.235 0.153-0.294 0.011-0.060 0.048-0.13 0.078-0.156s0.123-0.16 0.205-0.302 0.238-0.387 0.346-0.544c0.112-0.16 0.246-0.38 0.302-0.492s0.13-0.235 0.164-0.276c0.060-0.067 0.060-0.067 0.071 0.011 0.007 0.041-0.056 0.276-0.138 0.518zM2.041 13.914c0.022 0.048 0.089 0.115 0.145 0.145s0.168 0.134 0.242 0.235c0.075 0.097 0.212 0.253 0.305 0.346 0.104 0.101 0.171 0.197 0.171 0.25 0 0.045 0.052 0.22 0.112 0.391 0.115 0.313 0.142 0.477 0.075 0.477-0.019 0-0.037-0.034-0.037-0.071 0-0.041-0.026-0.101-0.060-0.13-0.063-0.067-0.268-0.369-0.343-0.507-0.030-0.052-0.104-0.194-0.168-0.317-0.067-0.123-0.156-0.238-0.201-0.261-0.048-0.019-0.086-0.063-0.086-0.097s-0.030-0.101-0.071-0.149c-0.037-0.048-0.075-0.123-0.082-0.16-0.011-0.056-0.086-0.123-0.175-0.156-0.004-0.004 0-0.030 0.015-0.063 0.030-0.078 0.108-0.045 0.156 0.067zM5.551 13.932c0 0.019-0.007 0.037-0.015 0.037-0.011 0-0.030-0.019-0.041-0.037-0.011-0.022-0.004-0.037 0.015-0.037 0.022 0 0.041 0.015 0.041 0.037zM12.144 14.167c0 0.030-0.041 0.089-0.093 0.138s-0.093 0.119-0.093 0.156c0 0.086-0.264 0.536-0.317 0.533-0.056 0-0.019-0.253 0.048-0.324 0.037-0.034 0.13-0.171 0.212-0.305 0.138-0.227 0.242-0.309 0.242-0.197zM11.288 14.227c-0.019 0.041-0.037 0.108-0.037 0.153s-0.041 0.142-0.093 0.216-0.127 0.246-0.168 0.373c-0.041 0.13-0.104 0.283-0.145 0.335-0.037 0.056-0.149 0.302-0.246 0.548s-0.19 0.462-0.205 0.484c-0.019 0.019-0.063 0.119-0.104 0.224-0.212 0.533-0.291 0.685-0.436 0.857-0.086 0.101-0.171 0.224-0.183 0.268-0.015 0.048-0.052 0.086-0.086 0.086-0.097 0-0.037-0.216 0.212-0.753 0.391-0.842 0.525-1.125 0.581-1.233 0.030-0.060 0.045-0.123 0.034-0.138-0.011-0.019 0.048-0.142 0.13-0.279 0.082-0.134 0.224-0.387 0.313-0.57 0.179-0.354 0.373-0.641 0.432-0.641 0.026 0 0.026 0.022 0 0.071zM10.632 14.473c-0.015 0.030-0.037 0.056-0.056 0.056-0.015 0-0.022-0.026-0.011-0.056 0.015-0.030 0.037-0.056 0.056-0.056 0.015 0 0.022 0.026 0.011 0.056zM10.192 14.711c-0.034 0.037-0.060 0.097-0.060 0.138 0 0.037-0.026 0.112-0.056 0.164-0.108 0.186-0.305 0.637-0.402 0.913-0.119 0.35-0.283 0.689-0.328 0.689-0.026 0-0.030-0.022-0.011-0.067 0.015-0.034 0.030-0.115 0.030-0.175 0.004-0.063 0.060-0.25 0.127-0.417 0.063-0.168 0.119-0.332 0.119-0.365 0-0.086 0.089-0.25 0.365-0.667 0.134-0.201 0.253-0.35 0.261-0.324s-0.011 0.075-0.045 0.112zM7.503 14.894c0.026 0.045-0.019 0.194-0.056 0.194-0.048 0-0.082-0.101-0.056-0.168 0.022-0.060 0.082-0.075 0.112-0.026zM3.941 16.022c0.108 0.127 0.194 0.242 0.194 0.261 0 0.060 0.235 0.41 0.406 0.607 0.086 0.101 0.197 0.268 0.242 0.373 0.048 0.104 0.123 0.224 0.171 0.265 0.045 0.041 0.123 0.153 0.171 0.246 0.048 0.097 0.138 0.253 0.205 0.35 0.134 0.201 0.343 0.715 0.309 0.771-0.011 0.019 0.019 0.082 0.071 0.134 0.164 0.179 0.238 0.402 0.119 0.358-0.037-0.015-0.056 0-0.056 0.060 0 0.063 0.015 0.075 0.074 0.056 0.056-0.019 0.089 0.011 0.168 0.168 0.052 0.104 0.089 0.212 0.082 0.235-0.026 0.067-0.667-0.6-0.771-0.801l-0.089-0.175 0.101-0.093c0.112-0.104 0.134-0.194 0.041-0.156-0.041 0.015-0.056 0.007-0.041-0.030 0.030-0.071-0.112-0.246-0.194-0.246-0.045 0-0.082-0.048-0.112-0.149-0.022-0.078-0.089-0.201-0.145-0.265-0.052-0.067-0.101-0.149-0.101-0.179 0-0.034-0.034-0.063-0.078-0.071-0.048-0.007-0.097-0.067-0.145-0.175-0.037-0.093-0.089-0.186-0.115-0.209-0.048-0.037-0.689-1.326-0.738-1.479-0.045-0.142 0.034-0.093 0.231 0.145zM11.194 16.205c0.011 0.019 0.004 0.037-0.015 0.037-0.022 0-0.041-0.019-0.041-0.037 0-0.022 0.007-0.037 0.015-0.037 0.011 0 0.030 0.015 0.041 0.037zM8.337 16.265c0.324 0.134 0.529 0.447 0.529 0.816 0 0.283-0.093 0.484-0.294 0.656-0.268 0.235-0.6 0.279-0.916 0.13-0.689-0.324-0.715-1.233-0.045-1.568 0.224-0.108 0.51-0.123 0.726-0.034zM4.88 16.857c0 0.030-0.007 0.056-0.015 0.056-0.022 0-0.209-0.283-0.209-0.32 0.004-0.056 0.224 0.205 0.224 0.265zM6.046 17.125c0.518 0.76 0.563 0.831 0.536 0.857-0.037 0.034-0.127-0.052-0.298-0.302-0.089-0.123-0.257-0.358-0.373-0.522-0.119-0.164-0.212-0.332-0.212-0.384 0-0.134 0.048-0.086 0.346 0.35zM2.682 17.248c0 0.019-0.026 0.037-0.056 0.037s-0.056-0.019-0.056-0.037c0-0.022 0.026-0.037 0.056-0.037s0.056 0.015 0.056 0.037zM5.778 17.647c0.097 0.138 0.406 0.853 0.406 0.931-0.004 0.089-0.745-1.185-0.745-1.274 0-0.052 0.22 0.171 0.339 0.343zM10.777 18c-0.052 0.078-0.112 0.142-0.127 0.142-0.045 0-0.045-0.007 0.026-0.153 0.093-0.19 0.134-0.231 0.168-0.179 0.015 0.026-0.015 0.108-0.067 0.19zM4.012 18.149c-0.011 0.026-0.019 0.007-0.019-0.045s0.007-0.071 0.019-0.048c0.007 0.026 0.007 0.071 0 0.093zM11.064 18.105c0 0.019-0.015 0.037-0.037 0.037-0.019 0-0.037-0.019-0.037-0.037 0-0.022 0.019-0.037 0.037-0.037 0.022 0 0.037 0.015 0.037 0.037zM5.178 18.626c0.041 0.026 0.045 0.045 0.011 0.078-0.048 0.048-0.123 0.015-0.123-0.063 0-0.060 0.034-0.067 0.112-0.015zM9.76 19.17c0 0.145-0.056 0.276-0.119 0.276-0.022 0-0.030-0.034-0.011-0.086 0.015-0.045 0.030-0.123 0.037-0.175 0.015-0.145 0.015-0.149 0.056-0.149 0.022 0 0.037 0.060 0.037 0.134zM9.35 20.008c0 0.063-0.015 0.104-0.037 0.089-0.019-0.011-0.037-0.063-0.037-0.115 0-0.048 0.019-0.089 0.037-0.089 0.022 0 0.037 0.052 0.037 0.115zM9.76 20.061c0 0.030-0.015 0.056-0.037 0.056-0.019 0-0.037-0.026-0.037-0.056s0.019-0.056 0.037-0.056c0.022 0 0.037 0.026 0.037 0.056zM6.482 20.731c0.026 0.034 0.037 0.067 0.026 0.082-0.030 0.026-0.138-0.056-0.138-0.104 0-0.052 0.060-0.041 0.112 0.022zM9.283 21.219c0.030 0.026-0.082 0.35-0.119 0.35-0.015 0-0.048-0.052-0.078-0.115-0.045-0.108-0.041-0.123 0.037-0.186 0.089-0.075 0.127-0.086 0.16-0.048zM6.545 21.316c0.078 0.045 0.145 0.082 0.145 0.082 0.004 0.004 0.019 0.041 0.030 0.086 0.045 0.142-0.074 0.104-0.268-0.082-0.194-0.183-0.149-0.227 0.093-0.086z"></path>
<path d="M10.207 13.001c0 0.138 0.007 0.153 0.060 0.112 0.063-0.056 0.056-0.227-0.011-0.253-0.034-0.007-0.048 0.034-0.048 0.142zM10.17 13.24c0 0.034 0.019 0.060 0.037 0.060 0.022 0 0.037-0.015 0.037-0.034 0-0.022-0.015-0.048-0.037-0.060-0.019-0.011-0.037 0.004-0.037 0.034zM9.76 14.789c0 0.019 0.019 0.037 0.041 0.037 0.019 0 0.026-0.019 0.015-0.037-0.011-0.022-0.030-0.037-0.041-0.037-0.007 0-0.015 0.015-0.015 0.037zM11.809 16.559c0 0.030 0.019 0.056 0.037 0.056 0.022 0 0.037-0.026 0.037-0.056s-0.015-0.056-0.037-0.056c-0.019 0-0.037 0.026-0.037 0.056zM11.537 16.901c-0.045 0.041-0.030 0.086 0.030 0.086 0.030 0 0.056-0.026 0.056-0.056 0-0.060-0.045-0.075-0.086-0.030zM11.373 17.118c-0.011 0.034-0.011 0.071 0.004 0.082 0.026 0.026 0.134-0.060 0.134-0.104 0-0.056-0.112-0.037-0.138 0.022zM11.243 17.337c-0.037 0.026-0.067 0.067-0.067 0.093 0 0.022-0.026 0.086-0.060 0.134-0.056 0.086-0.045 0.168 0.022 0.168 0.030 0 0.224-0.373 0.224-0.425 0-0.037-0.052-0.022-0.119 0.030zM5.532 19.036c0.011 0.019 0.030 0.037 0.041 0.037 0.007 0 0.015-0.019 0.015-0.037 0-0.022-0.019-0.037-0.041-0.037-0.019 0-0.026 0.015-0.015 0.037zM5.603 19.163c-0.026 0.071 0.011 0.134 0.082 0.134 0.037 0 0.052-0.030 0.045-0.082-0.015-0.097-0.097-0.134-0.127-0.052zM12.703 12.409c0 0.019 0.019 0.026 0.037 0.015 0.022-0.011 0.037-0.030 0.037-0.041 0-0.007-0.015-0.015-0.037-0.015-0.019 0-0.037 0.019-0.037 0.041zM16.503 20.377v2.235h0.604l-0.153 0.175c-0.291 0.324-0.343 0.816-0.13 1.2 0.138 0.257 0.376 0.492 0.767 0.753 0.555 0.376 0.7 0.566 0.7 0.928 0 0.365-0.201 0.544-0.581 0.514-0.309-0.026-0.443-0.19-0.488-0.589l-0.022-0.224h-0.548v0.246c0 0.339 0.060 0.514 0.25 0.723 0.227 0.253 0.466 0.35 0.868 0.35 0.279 0.004 0.343-0.011 0.54-0.108 0.391-0.197 0.607-0.604 0.57-1.080-0.037-0.454-0.25-0.749-0.823-1.144-0.428-0.291-0.656-0.499-0.719-0.652-0.075-0.175-0.063-0.417 0.022-0.559 0.127-0.209 0.507-0.253 0.723-0.082 0.138 0.108 0.183 0.205 0.205 0.462l0.022 0.224 0.54 0.022v-0.227c0-0.335-0.063-0.536-0.227-0.723-0.082-0.089-0.145-0.175-0.145-0.186s0.209-0.022 0.466-0.022h0.466v3.986h1.937v-0.522h-1.341v-1.337l0.95-0.022v-0.484l-0.954-0.022 0.022-1.132 0.663-0.011 0.663-0.007-0.011-0.253-0.011-0.25-0.931-0.037 0.242-0.086c0.775-0.268 1.367-0.82 1.568-1.457 0.101-0.32 0.108-0.827 0.019-1.14-0.171-0.592-0.622-1.069-1.296-1.375-0.611-0.276-1.013-0.32-2.999-0.32h-1.427v2.235zM19.636 19.412c0.201 0.063 0.391 0.235 0.507 0.458 0.086 0.164 0.101 0.235 0.101 0.507 0 0.358-0.048 0.507-0.242 0.726-0.212 0.238-0.343 0.279-0.972 0.279h-0.551v-0.98c0-0.54 0.011-0.995 0.026-1.006 0.041-0.045 0.98-0.030 1.132 0.015zM23.097 20.377v2.231l1.062 0.022-0.004 1.982v1.986h1.885v-0.522h-1.304v-3.465h0.335v-4.47h-1.974v2.235zM26.151 20.373v2.235l0.142 0.011 0.138 0.011 0.011 1.982 0.007 1.986h1.9v-0.522h-1.304v-1.341h0.931v-0.522h-0.935l0.011-0.57 0.011-0.566 0.644-0.011 0.641-0.007v-0.447h0.522v3.986h0.596v-1.751h0.376c0.361 0 0.38 0.004 0.477 0.104 0.123 0.123 0.16 0.369 0.149 0.961-0.015 0.589 0.082 0.723 0.525 0.723h0.224v-0.205c0-0.112-0.015-0.205-0.034-0.205s-0.063-0.026-0.093-0.060c-0.048-0.045-0.060-0.153-0.060-0.551 0-0.436-0.011-0.51-0.082-0.656-0.048-0.097-0.145-0.205-0.227-0.257l-0.138-0.089 0.138-0.078c0.246-0.138 0.291-0.265 0.291-0.842 0-0.592-0.041-0.741-0.253-0.942l-0.149-0.138h0.607v-1.453h-3.055v-0.522h2.012v-0.596h-2.012v-0.559h3.055v-1.341h-5.066v2.231zM30.327 23.156c0.082 0.086 0.089 0.134 0.101 0.477 0.022 0.644-0.093 0.782-0.656 0.76l-0.287-0.011-0.011-0.663-0.007-0.659h0.384c0.365 0 0.391 0.004 0.477 0.097zM12.409 22.504c-0.287 0.086-0.559 0.354-0.637 0.633-0.071 0.238-0.045 0.592 0.056 0.808 0.119 0.253 0.436 0.57 0.846 0.838 0.179 0.119 0.38 0.279 0.451 0.361 0.391 0.458 0.212 1.043-0.32 1.043-0.346 0-0.503-0.168-0.544-0.577l-0.022-0.224-0.589-0.022 0.019 0.291c0.026 0.454 0.212 0.749 0.581 0.931 0.283 0.142 0.745 0.149 1.032 0.019 0.458-0.209 0.689-0.659 0.615-1.211-0.056-0.406-0.287-0.685-0.95-1.136-0.425-0.291-0.6-0.492-0.633-0.73-0.052-0.343 0.197-0.607 0.533-0.566 0.305 0.041 0.428 0.186 0.484 0.581l0.026 0.205h0.522l-0.004-0.261c-0.007-0.477-0.242-0.831-0.641-0.965-0.186-0.067-0.626-0.075-0.823-0.019zM6.661 22.56c-0.019 0.015-0.030 0.931-0.030 2.034v2.004h0.76c0.797 0 0.92-0.019 1.132-0.175 0.205-0.153 0.276-0.346 0.298-0.812 0.022-0.522-0.041-0.775-0.235-0.946-0.075-0.063-0.156-0.115-0.186-0.115-0.093 0-0.060-0.052 0.082-0.13 0.231-0.127 0.291-0.294 0.287-0.82-0.004-0.604-0.082-0.79-0.406-0.961-0.134-0.075-0.22-0.082-0.913-0.093-0.421-0.007-0.775 0-0.79 0.015zM8.084 23.134c0.104 0.104 0.119 0.209 0.104 0.611-0.011 0.332-0.019 0.365-0.115 0.458-0.097 0.097-0.127 0.104-0.473 0.115l-0.373 0.015v-1.274h0.391c0.339 0 0.402 0.011 0.466 0.075zM7.972 24.821c0.197 0.067 0.261 0.227 0.261 0.648 0 0.186-0.015 0.384-0.037 0.44-0.056 0.149-0.246 0.209-0.626 0.197l-0.324-0.011-0.011-0.663-0.007-0.659 0.305 0.004c0.171 0 0.369 0.019 0.44 0.045z"></path>
<path d="M21.867 24.568v2.030h1.863v-0.522h-1.304v-3.539h-0.559v2.030z"></path>
</symbol>
<symbol id="icon-info" viewBox="0 0 32 32">
<path d="M14.094 1.281c-4.456 0.488-8.563 2.731-11.175 6.106-4.269 5.513-3.806 13.063 1.106 18.106 3.244 3.325 7.606 5.050 12.444 4.925 2.344-0.063 4.306-0.488 6.4-1.394l0.769-0.331 2.844 1.069c3.087 1.15 3.156 1.169 3.494 0.856 0.35-0.331 0.356-0.306-0.481-3.238l-0.762-2.681 0.344-0.462c1.631-2.163 2.6-4.6 2.863-7.169 0.125-1.281 0.056-2.6-0.225-3.994-0.406-2.050-1.456-4.25-2.856-5.981-0.563-0.694-1.956-2.031-2.681-2.581-2.456-1.837-5.425-2.969-8.581-3.263-0.913-0.081-2.569-0.069-3.5 0.031zM18.025 2.85c5.5 0.675 10.212 4.331 11.813 9.181 0.413 1.231 0.544 2.031 0.581 3.438 0.038 1.381-0.044 2.15-0.331 3.313-0.419 1.663-1.288 3.369-2.413 4.75-0.481 0.6-0.55 0.712-0.55 0.969 0 0.144 0.962 3.675 1.156 4.231 0.012 0.044-0.144 0.006-0.394-0.087-2.181-0.819-4.075-1.519-4.212-1.55-0.125-0.031-0.381 0.056-1.063 0.363-2.225 1.006-4.206 1.438-6.613 1.431-3.244 0-6.106-0.869-8.688-2.625-2.912-1.981-4.831-4.8-5.544-8.119-0.163-0.75-0.169-0.9-0.169-2.331s0.006-1.581 0.169-2.331c0.731-3.425 2.737-6.287 5.806-8.3 3.019-1.969 6.687-2.794 10.45-2.331z"></path>
<path d="M16 5.719c-0.956 0.213-2.019 0.956-2.481 1.731-0.994 1.65 0.037 3.65 2.088 4.050 0.606 0.119 1.638 0.050 2.194-0.144 1.637-0.569 2.656-2 2.4-3.362-0.188-1.006-0.875-1.75-2.006-2.169-0.525-0.194-1.581-0.244-2.194-0.106zM17.637 7.256c0.325 0.081 0.8 0.425 0.938 0.681 0.325 0.625-0.106 1.456-0.975 1.844-1.337 0.613-2.912 0.081-2.912-0.975 0-0.563 0.387-1.050 1.106-1.388 0.606-0.281 1.175-0.331 1.844-0.162zM14.944 12.444c-1.619 0.319-3.125 1.556-2.975 2.444 0.037 0.2 0.125 0.338 0.406 0.613 0.313 0.313 0.375 0.406 0.438 0.719 0.106 0.506 0.050 0.938-0.45 3.5-0.594 3.025-0.6 3.663-0.075 4.756 0.381 0.781 1.15 1.431 2.037 1.719 0.394 0.131 0.575 0.15 1.3 0.15 0.787 0 0.881-0.012 1.394-0.194 0.706-0.256 1.15-0.525 1.675-1.012 0.481-0.444 0.681-0.8 0.681-1.194 0-0.331-0.144-0.581-0.45-0.794-0.288-0.2-0.419-0.475-0.462-0.975-0.056-0.569 0.056-1.331 0.469-3.256 0.469-2.175 0.531-2.581 0.481-3.194-0.113-1.331-0.788-2.375-1.881-2.919-0.788-0.387-1.762-0.525-2.588-0.363zM16.525 14.037c0.637 0.2 1.056 0.625 1.25 1.275 0.175 0.588 0.131 1.050-0.3 3.081-0.512 2.394-0.556 2.738-0.525 3.719 0.031 0.887 0.144 1.288 0.494 1.719 0.106 0.131 0.175 0.262 0.144 0.288-0.725 0.519-1.275 0.712-1.994 0.712-0.969 0-1.55-0.325-1.919-1.063-0.169-0.344-0.206-0.494-0.225-0.95-0.019-0.462 0.031-0.813 0.381-2.6 0.519-2.644 0.569-2.962 0.531-3.769-0.031-0.713-0.15-1.125-0.45-1.575-0.144-0.219-0.15-0.244-0.050-0.331 0.056-0.056 0.275-0.181 0.481-0.281 0.775-0.375 1.456-0.444 2.181-0.225z"></path>
</symbol>
</defs>
</svg>
