<svg xmlns="http://www.w3.org/2000/svg" aria-hidden="true" style="position:absolute;width:0;height:0;overflow:hidden">
  <defs>

<symbol id="icon-twitterx" viewBox="0 0 32 32">
<path d="M25.6 4.267h-19.2c-1.178 0-2.133 0.955-2.133 2.133v0 19.2c0 1.178 0.955 2.133 2.133 2.133v0h19.2c1.178 0 2.133-0.955 2.133-2.133v0-19.2c0-1.178-0.955-2.133-2.133-2.133v0zM18.179 22.4l-3.186-4.554-3.932 4.554h-1.574l4.807-5.553-5.070-7.247h4.919l2.87 4.103 3.553-4.103h1.547l-4.403 5.1 5.388 7.7h-4.919z"></path>
<path d="M11.603 10.863l7.205 10.269h1.907l-7.205-10.269z"></path>
</symbol>

  </defs>
</svg>